<?xml version="1.0" encoding="UTF-8"?>
<svg version="1.1" xmlns="http://www.w3.org/2000/svg" width="1024" height="1024">
<path d="M0 0 C337.92 0 675.84 0 1024 0 C1024 337.92 1024 675.84 1024 1024 C686.08 1024 348.16 1024 0 1024 C0 686.08 0 348.16 0 0 Z " fill="#FCC636" transform="translate(0,0)"/>
<path d="M0 0 C3.36642696 0.67328539 5.97888234 1.26088865 9.08984375 2.45532227 C9.86255615 2.74975723 10.63526855 3.0441922 11.43139648 3.34754944 C12.25841064 3.66727219 13.0854248 3.98699493 13.9375 4.31640625 C14.812854 4.65115463 15.68820801 4.98590302 16.59008789 5.33079529 C19.39483149 6.40431718 22.19744647 7.48327529 25 8.5625 C26.82277553 9.26143589 28.64569104 9.96000685 30.46875 10.65820312 C31.37028809 11.00402435 32.27182617 11.34984558 33.20068359 11.70614624 C35.02817456 12.40578102 36.85663161 13.10289745 38.68603516 13.79751587 C43.40146081 15.59297197 48.08554138 17.43905323 52.7421875 19.38232422 C53.67683838 19.76291489 54.61148926 20.14350555 55.57446289 20.53562927 C57.34477483 21.2576549 59.10773826 21.99808937 60.86108398 22.76039124 C66.9440744 25.20773265 70.84375671 25.13457145 77 23 C77.87083221 22.70236252 78.74166443 22.40472504 79.6388855 22.09806824 C82.59960305 21.03984346 85.53224044 19.92279797 88.46484375 18.7890625 C89.53819473 18.37965424 90.61154572 17.97024597 91.71742249 17.5484314 C95.12637844 16.24644962 98.53192065 14.93578488 101.9375 13.625 C104.22049086 12.75204884 106.50369217 11.87964784 108.78710938 11.0078125 C112.99856592 9.39728924 117.20948909 7.78542693 121.41772461 6.16650391 C122.81412674 5.6293576 122.81412674 5.6293576 124.23873901 5.08135986 C127.82276022 3.67779218 131.37793386 2.20660481 134.92726135 0.71762085 C137 0 137 0 140 0 C140.79822348 9.37912587 141.12873737 18.58786748 141 28 C140.34 28 139.68 28 139 28 C139 29.32 139 30.64 139 32 C139.86882812 32.11085938 140.73765625 32.22171875 141.6328125 32.3359375 C151.42806967 34.26771676 160.43840171 40.20461955 166.57421875 48 C175.05521581 60.82166485 178.68074431 76.89636423 182.9375 91.5 C183.24259995 92.54382339 183.24259995 92.54382339 183.55386353 93.60873413 C184.13389389 95.60219684 184.70712941 97.59745973 185.27734375 99.59375 C185.60984131 100.75583984 185.94233887 101.91792969 186.28491211 103.11523438 C187 106 187 106 187 109 C187.886875 109.24621094 188.77375 109.49242187 189.6875 109.74609375 C199.02725156 113.28154216 206.03162527 122.51198095 210.09375 131.390625 C211.79548968 136.29046165 212.13106193 141.1361165 212.19287109 146.29321289 C212.21696548 148.13025536 212.21696548 148.13025536 212.24154663 150.00440979 C212.28618361 155.55868121 212.32742966 161.11282837 212.35009766 166.66723633 C212.36347478 169.5995171 212.39141197 172.5311082 212.43212891 175.46313477 C212.4814589 179.01684353 212.50621645 182.56992401 212.51332474 186.12396049 C212.52327598 188.12763341 212.55750489 190.13113836 212.59213257 192.13453674 C212.56857257 202.23249388 212.56857257 202.23249388 209.64819336 205.33447266 C206.52948187 207.2959228 204.83848906 207.5324391 201.1875 207.3125 C200.21167969 207.26738281 199.23585938 207.22226562 198.23046875 207.17578125 C197.12638672 207.08876953 197.12638672 207.08876953 196 207 C196.03480469 208.31355469 196.06960938 209.62710938 196.10546875 210.98046875 C196.13361466 212.71613301 196.16091396 214.45181115 196.1875 216.1875 C196.22520508 217.48397461 196.22520508 217.48397461 196.26367188 218.80664062 C196.31992789 223.70091362 196.28851373 227.09801082 193 231 C192.3709375 231.75410156 191.741875 232.50820313 191.09375 233.28515625 C186.11277185 236.04607722 181.09192422 235.53655694 175.5 235.4375 C174.37207031 235.44458984 173.24414062 235.45167969 172.08203125 235.45898438 C162.37470135 235.38431261 162.37470135 235.38431261 158 232 C154 226 154 226 154 207 C99.22 207 44.44 207 -12 207 C-12 213.6 -12 220.2 -12 227 C-16.60846502 233.91269752 -16.60846502 233.91269752 -21 235 C-25.13755084 235.43437896 -29.27932245 235.37022871 -33.4375 235.375 C-34.55705078 235.39949219 -35.67660156 235.42398438 -36.83007812 235.44921875 C-43.14046247 235.47168896 -47.32257461 235.4509724 -52 231 C-53.85823007 227.98282644 -54.24043409 225.75385882 -54.1953125 222.234375 C-54.18886719 221.34492187 -54.18242188 220.45546875 -54.17578125 219.5390625 C-54.15902344 218.61867188 -54.14226563 217.69828125 -54.125 216.75 C-54.11597656 215.81414062 -54.10695313 214.87828125 -54.09765625 213.9140625 C-54.07413636 211.60911343 -54.04126853 209.3046884 -54 207 C-54.73605469 207.04640625 -55.47210937 207.0928125 -56.23046875 207.140625 C-57.20628906 207.17671875 -58.18210937 207.2128125 -59.1875 207.25 C-60.15042969 207.29640625 -61.11335937 207.3428125 -62.10546875 207.390625 C-65.89588761 206.87909749 -67.32676866 205.71416808 -70 203 C-70.63491821 199.92880249 -70.63491821 199.92880249 -70.64697266 196.27880859 C-70.65573425 195.61153748 -70.66449585 194.94426636 -70.67352295 194.2567749 C-70.69550457 192.05333116 -70.68096185 189.85190132 -70.6640625 187.6484375 C-70.66743346 186.10868955 -70.67228841 184.5689442 -70.67855835 183.02920532 C-70.68592989 179.79932361 -70.67522509 176.57013328 -70.65185547 173.34033203 C-70.62350981 169.22454237 -70.6396771 165.11039324 -70.66971779 160.99466515 C-70.68790714 157.81157395 -70.68197765 154.62886233 -70.66907883 151.44575882 C-70.66576928 149.93008857 -70.66974459 148.41438258 -70.68147659 146.89875412 C-70.75571311 134.60196182 -68.42537537 125.98287925 -59.97265625 116.82421875 C-56.10858718 113.25091131 -51.70418579 110.3520929 -47 108 C-46.21838823 106.25431422 -46.21838823 106.25431422 -45.61474609 104.10131836 C-45.2332692 102.85752663 -45.2332692 102.85752663 -44.84408569 101.58860779 C-44.57327179 100.68151566 -44.30245789 99.77442352 -44.0234375 98.83984375 C-43.42871927 96.91070434 -42.83365505 94.98167156 -42.23828125 93.05273438 C-41.31193147 90.0203597 -40.38986046 86.98681851 -39.47509766 83.95092773 C-27.91315898 45.72193695 -27.91315898 45.72193695 -12.45703125 36.90625 C-3.28173745 32 -3.28173745 32 2 32 C2 31.34 2 30.68 2 30 C1.34 30 0.68 30 0 30 C0 20.1 0 10.2 0 0 Z " fill="#01223E" transform="translate(599,291)"/>
<path d="M0 0 C0.70753922 0.29393143 1.41507843 0.58786285 2.14405823 0.89070129 C3.6886147 1.53365153 5.23130564 2.18109774 6.77230835 2.83251953 C10.15334732 4.26161979 13.54344706 5.66865757 16.93284607 7.07778931 C18.78860591 7.84971751 20.64386812 8.62284297 22.49867249 9.39706421 C33.71599281 14.07675805 44.97457498 18.65493872 56.23284912 23.23501587 C59.68985493 24.64176914 63.14605531 26.0504835 66.60205078 27.4597168 C68.7984793 28.35471215 70.99493066 29.24965142 73.19140625 30.14453125 C74.24442932 30.57397537 75.29745239 31.00341949 76.38238525 31.44587708 C81.43586261 33.50301059 86.49542465 35.54145225 91.57275391 37.5390625 C92.50396561 37.9064856 93.43517731 38.27390869 94.39460754 38.65246582 C96.13244062 39.33639291 97.87200394 40.01594596 99.61357117 40.69030762 C105.36484473 42.95468848 105.36484473 42.95468848 107.5859375 45.17578125 C107.7109375 48.30078125 107.7109375 48.30078125 107.5859375 51.17578125 C106.129683 51.84697674 104.67085883 52.51259932 103.2109375 53.17578125 C102.39882813 53.54703125 101.58671875 53.91828125 100.75 54.30078125 C98.5859375 55.17578125 98.5859375 55.17578125 96.5859375 55.17578125 C96.63038736 60.68986251 96.70052787 66.20283086 96.79345703 71.71630859 C96.82150766 73.58796279 96.84280052 75.45973194 96.85693359 77.33154297 C96.92867753 91.71798603 96.92867753 91.71798603 101.5859375 105.17578125 C102.5859375 109.17578125 102.5859375 109.17578125 102.5859375 118.17578125 C95.3259375 118.17578125 88.0659375 118.17578125 80.5859375 118.17578125 C80.5859375 106.9017599 80.5859375 106.9017599 82.5234375 101.61328125 C82.88308594 100.60136719 83.24273438 99.58945312 83.61328125 98.546875 C84.5859375 96.17578125 84.5859375 96.17578125 85.5859375 95.17578125 C85.74589916 92.58425018 85.84532447 90.01626105 85.90234375 87.421875 C85.9335154 86.25870506 85.9335154 86.25870506 85.96531677 85.07203674 C86.03089552 82.58587817 86.08973549 80.0996108 86.1484375 77.61328125 C86.19161483 75.93162921 86.23522886 74.24998831 86.27929688 72.56835938 C86.38658529 68.43761254 86.48782882 64.30675589 86.5859375 60.17578125 C85.47299316 60.63202881 84.36004883 61.08827637 83.21337891 61.55834961 C62.90020215 69.88397883 42.5825044 78.19866746 22.2387085 86.44924927 C20.44485262 87.17698128 18.65126816 87.90538276 16.85797119 88.63449097 C12.10108035 90.56799349 7.33968936 92.48902388 2.56756592 94.38464355 C0.76762999 95.10324304 -1.026454 95.83645722 -2.81982422 96.57128906 C-3.77775879 96.94866211 -4.73569336 97.32603516 -5.72265625 97.71484375 C-6.50310303 98.0288916 -7.2835498 98.34293945 -8.08764648 98.66650391 C-14.04862127 99.97142503 -19.60916742 97.0647553 -25.0078125 94.80859375 C-25.85108093 94.46206757 -26.69434937 94.11554138 -27.56317139 93.7585144 C-30.34929452 92.61188083 -33.13164885 91.45638381 -35.9140625 90.30078125 C-37.87184398 89.49294086 -39.82985587 88.68565864 -41.78808594 87.87890625 C-45.89992695 86.18359253 -50.01016292 84.48446825 -54.11914062 82.78222656 C-60.31349918 80.21623908 -66.51183162 77.65996174 -72.7109375 75.10546875 C-81.42721769 71.51280531 -90.13993306 67.91162208 -98.85015869 64.30430603 C-103.46357081 62.39430845 -108.07901728 60.48951409 -112.69903564 58.59555054 C-115.52196633 57.43784419 -118.3427577 56.27494315 -121.1640625 55.11328125 C-122.11571289 54.72591797 -123.06736328 54.33855469 -124.04785156 53.93945312 C-124.88541992 53.59333984 -125.72298828 53.24722656 -126.5859375 52.890625 C-127.2881543 52.6030835 -127.99037109 52.31554199 -128.71386719 52.01928711 C-130.4140625 51.17578125 -130.4140625 51.17578125 -132.4140625 49.17578125 C-132.28173828 46.6965332 -132.28173828 46.6965332 -131.4140625 44.17578125 C-129.79248047 42.86401367 -129.79248047 42.86401367 -127.53125 41.84375 C-126.16371582 41.22185791 -126.16371582 41.22185791 -124.76855469 40.58740234 C-118.27540864 37.85498819 -111.76437406 35.17623914 -105.22296143 32.56124878 C-100.56455859 30.69891524 -95.91165138 28.82292098 -91.2578125 26.94921875 C-90.29098541 26.56042038 -89.32415833 26.17162201 -88.32803345 25.77104187 C-76.64092058 21.06769451 -64.98621061 16.28530508 -53.331604 11.50210571 C-52.45921082 11.14409882 -51.58681763 10.78609192 -50.68798828 10.41723633 C-49.82801239 10.06422958 -48.9680365 9.71122284 -48.08200073 9.34751892 C-45.55049051 8.31114853 -43.0160303 7.28224103 -40.48144531 6.25341797 C-36.95805629 4.81982759 -33.45769586 3.34054679 -29.96386719 1.83642578 C-28.18427878 1.0861824 -26.40465747 0.33601706 -24.625 -0.4140625 C-23.81761383 -0.7715004 -23.01022766 -1.12893829 -22.17837524 -1.49720764 C-14.00128653 -4.90134209 -8.08384423 -3.47133409 0 0 Z " fill="#01223E" transform="translate(681.4140625,209.82421875)"/>
<path d="M0 0 C8.91 0 17.82 0 27 0 C27 19.8 27 39.6 27 60 C29.31 57.36 31.62 54.72 34 52 C43.53545061 43.88370508 53.7732829 41.98517664 65.99414062 42.78857422 C74.84856444 43.7218667 82.56061374 46.87640454 89 53 C90.01513672 53.95519531 90.01513672 53.95519531 91.05078125 54.9296875 C103.02921319 67.24649322 105.40260017 81.99715123 105.36791992 98.4140625 C105.12597437 114.10039044 101.05545553 127.32354949 90.22265625 138.92578125 C80.41334384 148.07999019 68.44305901 150.62762202 55.32421875 150.28125 C43.67060946 149.29528071 34.66967789 143.65296992 27 135 C27 134.34 27 133.68 27 133 C26.34 133 25.68 133 25 133 C25 137.62 25 142.24 25 147 C16.75 147 8.5 147 0 147 C0 98.49 0 49.98 0 0 Z " fill="#01213E" transform="translate(370,525)"/>
<path d="M0 0 C1.18654678 -0.00365067 2.37309357 -0.00730133 3.59559631 -0.01106262 C6.82504123 -0.01774325 10.05410421 -0.01110773 13.28351784 0.00226951 C16.67855444 0.01366378 20.07357768 0.00947037 23.46862793 0.00752258 C29.16777503 0.00664211 34.86680262 0.01766809 40.56591797 0.03613281 C47.13532651 0.05729666 53.70456015 0.06080881 60.27399588 0.05457085 C66.61876811 0.04885687 72.96347936 0.05454674 79.3082428 0.0657444 C81.9970056 0.07036353 84.68573079 0.07127597 87.37449646 0.06915855 C91.1364837 0.06878635 94.89820856 0.08145204 98.66015625 0.09765625 C100.31562218 0.09394012 100.31562218 0.09394012 102.00453186 0.09014893 C112.38354141 0.16124322 120.8297708 1.35553114 128.83007812 8.37231445 C138.81834417 19.11633887 148.83007812 44.77491304 148.83007812 59.37231445 C83.82007813 59.37231445 18.81007813 59.37231445 -48.16992188 59.37231445 C-45.94756552 51.22367449 -43.59207598 43.33787102 -40.85742188 35.37231445 C-40.30924805 33.72489258 -40.30924805 33.72489258 -39.75 32.04418945 C-35.93722512 20.92853487 -31.51306229 9.86933895 -21.16992188 3.37231445 C-14.16656053 0.23783124 -7.58116868 -0.05250649 0 0 Z " fill="#FCC736" transform="translate(619.169921875,339.627685546875)"/>
<path d="M0 0 C22 0 22 0 27.125 4.4375 C28.10093859 6.00661687 29.07342756 7.57983228 29.96435547 9.19873047 C31.51471094 11.89522332 33.34577392 14.36902675 35.1652832 16.88867188 C36.72155688 19.04723719 38.24534933 21.22611843 39.765625 23.41015625 C43.08074873 28.14242437 46.49872128 32.79462582 49.9375 37.4375 C56.69858417 46.57266989 63.3604851 55.77625462 70 65 C72.31133495 68.20917464 74.62413052 71.41729179 76.9375 74.625 C77.45707275 75.34695557 77.97664551 76.06891113 78.51196289 76.81274414 C79.26207642 77.85289673 79.26207642 77.85289673 80.02734375 78.9140625 C80.45781006 79.5117041 80.88827637 80.1093457 81.33178711 80.72509766 C83.85900763 84.17140833 86.43582288 87.58109718 89 91 C89.33 60.97 89.66 30.94 90 0 C98.58 0 107.16 0 116 0 C116 45.21 116 90.42 116 137 C108.08 137 100.16 137 92 137 C84.30600922 129.02622773 84.30600922 129.02622773 82.4375 125.41796875 C80.2667919 121.42946435 77.82380025 117.83166409 75.125 114.1875 C74.30923446 113.04176003 73.49548805 111.89458021 72.68359375 110.74609375 C69.56897883 106.37666994 66.37740469 102.06460082 63.1875 97.75 C58.05079875 90.80120401 52.96656359 83.81752743 47.91943359 76.8034668 C43.1605119 70.19967999 38.33523857 63.64579169 33.4921875 57.10351562 C32.93402344 56.34876953 32.37585938 55.59402344 31.80078125 54.81640625 C31.30747314 54.15068604 30.81416504 53.48496582 30.3059082 52.79907227 C29.16481231 51.22705215 28.07751096 49.61626644 27 48 C26.67 77.37 26.34 106.74 26 137 C17.42 137 8.84 137 0 137 C0 91.79 0 46.58 0 0 Z " fill="#01213E" transform="translate(491,535)"/>
<path d="M0 0 C6.35453329 5.10023979 11.50995828 11.00700119 14.98828125 18.3984375 C14.98828125 19.7184375 14.98828125 21.0384375 14.98828125 22.3984375 C11.57857806 23.77062423 8.15958839 25.11797356 4.73828125 26.4609375 C3.77019531 26.85087891 2.80210937 27.24082031 1.8046875 27.64257812 C0.87011719 28.00673828 -0.06445312 28.37089844 -1.02734375 28.74609375 C-1.88618164 29.08648682 -2.74501953 29.42687988 -3.62988281 29.77758789 C-6.24699347 30.45976423 -7.52166723 30.39962377 -10.01171875 29.3984375 C-11.6171875 27.54296875 -11.6171875 27.54296875 -13.19921875 25.2109375 C-18.95417517 17.50909157 -26.49778512 12.93335213 -36.01171875 11.3984375 C-48.37824631 10.37000964 -59.30547335 11.60553481 -69.234375 19.70703125 C-79.62025778 29.59073948 -82.97760374 42.07261572 -83.38671875 56.0234375 C-83.34018911 70.53206749 -79.64040254 82.76975371 -69.19921875 93.2109375 C-58.47556932 100.57030475 -48.81114813 102.49775662 -36.01171875 101.3984375 C-24.59871287 99.2668729 -16.89791229 94.66184567 -10.23828125 85.23046875 C-9.1607966 83.62110473 -8.08603796 82.00991631 -7.01171875 80.3984375 C-1.21907245 81.01269127 3.93437191 82.55376794 9.42578125 84.4609375 C10.25271484 84.74259766 11.07964844 85.02425781 11.93164062 85.31445312 C13.95240463 86.00361542 15.97061407 86.7002606 17.98828125 87.3984375 C13.33976151 102.40269102 4.68809889 111.80357838 -9.01171875 119.3984375 C-27.46923041 128.65220351 -48.25684386 130.09778318 -68.01171875 124.3984375 C-76.75807891 121.37296701 -84.15003544 117.62758086 -91.01171875 111.3984375 C-91.93017578 110.59986328 -91.93017578 110.59986328 -92.8671875 109.78515625 C-106.05877422 97.58366655 -112.43015081 79.35981504 -113.296875 61.74609375 C-113.93408874 39.3529061 -108.09656308 19.2981974 -92.69921875 2.6484375 C-67.45929181 -21.0635118 -26.93189849 -19.89371753 0 0 Z " fill="#02213E" transform="translate(234.01171875,547.6015625)"/>
<path d="M0 0 C1.44572388 0.0141394 1.44572388 0.0141394 2.9206543 0.02856445 C14.37536526 0.27096665 25.34866226 2.23058264 34.09375 10.16015625 C45.86022154 22.69942571 45.44978833 39.59200332 45.3203125 55.83984375 C45.31656791 57.25329891 45.31372781 58.66675673 45.31173706 60.08021545 C45.30421407 63.74453294 45.28466781 67.40868392 45.2623291 71.07293701 C45.24162168 74.83440907 45.23268294 78.59590887 45.22265625 82.35742188 C45.20140725 89.69669816 45.16632251 97.03580425 45.125 104.375 C36.545 104.375 27.965 104.375 19.125 104.375 C18.795 101.075 18.465 97.775 18.125 94.375 C17.17625 95.261875 16.2275 96.14875 15.25 97.0625 C4.09276021 106.59686855 -8.70115198 108.47385573 -22.875 107.375 C-30.56696564 105.80655279 -36.75558384 102.36375098 -41.875 96.375 C-47.4483992 87.56125243 -48.44372515 77.54766497 -46.2265625 67.41015625 C-43.39646219 59.56086095 -38.50282256 54.5928591 -31.25 50.625 C-16.63005928 43.91961365 1.24640692 42.877931 17.125 43.375 C16.84911137 34.11717805 16.84911137 34.11717805 12.125 26.375 C6.16132456 23.32455362 -0.35304519 23.76955414 -6.875 24.375 C-12.38004348 26.74786357 -14.29023875 30.2054775 -16.875 35.375 C-24.93850113 35.50367289 -32.84997656 35.17181084 -40.875 34.375 C-41.63029436 25.68911485 -38.09643581 17.90888373 -32.6953125 11.19140625 C-23.87047519 2.38550636 -12.04357324 -0.1828467 0 0 Z " fill="#02213E" transform="translate(306.875,567.625)"/>
<path d="M0 0 C1.37321092 0.97368328 2.72726068 1.97486424 4.0625 3 C4.8978125 3.61746094 5.733125 4.23492188 6.59375 4.87109375 C15.37830972 12.44638654 19.84737873 24.73358433 21.0625 36 C21.16807481 38.98113497 21.15822383 41.95502219 21.125 44.9375 C21.12048828 45.71673828 21.11597656 46.49597656 21.11132812 47.29882812 C21.09966908 49.19925268 21.08173877 51.09963706 21.0625 53 C12.05632862 53.82410518 3.14663023 54.13649172 -5.89453125 54.09765625 C-7.16350754 54.0962413 -8.43248383 54.09482635 -9.73991394 54.09336853 C-13.06555213 54.08876507 -16.39111756 54.07982806 -19.71673584 54.06866455 C-23.12951031 54.05831753 -26.54229239 54.05384285 -29.95507812 54.04882812 C-36.61590497 54.03787667 -43.2766983 54.0211979 -49.9375 54 C-49.48157991 55.59779438 -49.01943186 57.19381246 -48.5546875 58.7890625 C-48.29800293 59.67803223 -48.04131836 60.56700195 -47.77685547 61.48291016 C-45.67066119 67.79904251 -41.67420143 72.1249286 -35.765625 75.08984375 C-28.98818441 77.2709814 -19.16807343 77.07268973 -12.375 75 C-7.8994198 72.39602606 -5.04660332 69.09041405 -1.9375 65 C0.58371432 65.62349358 3.10446931 66.24875361 5.625 66.875 C6.32947266 67.04902344 7.03394531 67.22304688 7.75976562 67.40234375 C12.22274998 68.51294815 16.64737052 69.71201216 21.0625 71 C18.71197793 80.16703607 12.75528496 87.65371444 5.0625 93 C-8.49282996 100.87420554 -26.09585462 102.21475723 -41.3125 98.875 C-53.21759146 95.3457584 -63.03070114 88.66040329 -69.7890625 78.109375 C-71.37615125 75.12283361 -72.70631654 72.14906661 -73.9375 69 C-74.27652344 68.13503906 -74.61554687 67.27007813 -74.96484375 66.37890625 C-79.65805891 51.47740742 -78.80866712 33.03656558 -71.9375 19 C-69.87843597 15.38563345 -67.60912429 12.18383113 -64.9375 9 C-64.43863281 8.36707031 -63.93976562 7.73414063 -63.42578125 7.08203125 C-48.30001317 -10.17734643 -18.50290192 -11.93149485 0 0 Z " fill="#02213E" transform="translate(700.9375,575)"/>
<path d="M0 0 C0.92490234 -0.01160156 1.84980469 -0.02320313 2.80273438 -0.03515625 C13.63101729 0.01037262 23.40522569 2.85815448 31.265625 10.5234375 C35.63275639 15.25187832 38.93623556 19.02899246 39.1875 25.6875 C39.14625 26.574375 39.105 27.46125 39.0625 28.375 C31.82277807 30.40212214 24.50805532 31.39201938 17.0625 32.375 C16.19625 30.9828125 16.19625 30.9828125 15.3125 29.5625 C12.35673452 25.37516557 10.06083209 23.35899221 5.0625 22.375 C-1.44480408 21.90371892 -7.3855158 21.4736057 -12.9375 25.375 C-14.35791821 28.21583641 -14.25202272 30.22977278 -13.9375 33.375 C-10.83232745 37.46643083 -7.72293823 38.23617162 -2.8125 39.3125 C-1.37978673 39.64532571 0.05248977 39.98003597 1.484375 40.31640625 C2.23138672 40.4880127 2.97839844 40.65961914 3.74804688 40.83642578 C31.05815627 47.19149976 31.05815627 47.19149976 38.90625 58.34765625 C43.40373228 66.23344444 43.43320902 76.46933214 41.125 85.1875 C38.14004943 92.69251857 31.14159059 99.68797365 24.0625 103.375 C9.04222531 109.46056249 -8.93704166 109.30150395 -23.90625 103.15625 C-33.17555818 98.57252618 -39.32783698 91.92114223 -43.34375 82.41796875 C-43.9375 80.375 -43.9375 80.375 -43.9375 76.375 C-41.43909546 75.86561655 -38.93926612 75.36736886 -36.4375 74.875 C-35.74140625 74.73191406 -35.0453125 74.58882812 -34.328125 74.44140625 C-29.44294425 73.49150999 -24.91300203 72.92895713 -19.9375 73.375 C-18.08984375 74.984375 -18.08984375 74.984375 -16.875 77.125 C-13.49453973 82.3434701 -9.86382309 84.39955897 -3.9375 86.375 C2.8310664 86.87594381 8.68520241 86.68578256 14.4375 82.75 C16.46914194 79.78067716 16.65044311 77.81140412 16.43359375 74.26953125 C16.14513226 72.20291242 16.14513226 72.20291242 14.625 70.0625 C7.49527834 65.36731745 -1.81428807 64.1509691 -10.03320312 62.35742188 C-21.36468508 59.77715074 -31.94004935 56.2289166 -38.4375 45.9375 C-41.43980991 39.07507735 -40.99528874 29.78766902 -39.27734375 22.62109375 C-36.02003676 14.51307852 -30.16215336 8.55690923 -22.5390625 4.48046875 C-14.85553374 1.21554587 -8.37751239 -0.10464623 0 0 Z " fill="#02213E" transform="translate(774.9375,567.625)"/>
<path d="M0 0 C7.59 0 15.18 0 23 0 C23 9.24 23 18.48 23 28 C32.24 28 41.48 28 51 28 C51 35.26 51 42.52 51 50 C41.76 50 32.52 50 23 50 C23.07411178 56.70839425 23.15704757 63.41548301 23.26245117 70.12329102 C23.29563367 72.40349486 23.32368624 74.68377953 23.34643555 76.96411133 C23.38010382 80.24855882 23.43242726 83.53227014 23.48828125 86.81640625 C23.49467117 87.83021866 23.5010611 88.84403107 23.50764465 89.88856506 C23.62687725 95.67406051 24.20206061 99.89631971 27 105 C31.15871404 108.74816457 35.517664 108.36059187 40.8125 108.1875 C41.99489258 108.16719727 41.99489258 108.16719727 43.20117188 108.14648438 C45.13441169 108.11133456 47.06729682 108.05753361 49 108 C49.50780894 110.20655075 50.00591365 112.41533605 50.5 114.625 C50.7784375 115.85476563 51.056875 117.08453125 51.34375 118.3515625 C51.94091621 121.67152228 52.12409534 124.63908451 52 128 C40.94482732 133.08537943 26.50662332 134.28928294 14.8125 130.375 C7.77031033 127.28594134 3.14895332 123.27066259 -0.17578125 116.3203125 C-2.96114842 108.47904188 -3.26880686 101.45902159 -3.1953125 93.1875 C-3.1924826 91.97803711 -3.18965271 90.76857422 -3.18673706 89.52246094 C-3.17559396 85.68153752 -3.15049983 81.84085225 -3.125 78 C-3.11496263 75.38672213 -3.1058381 72.77344059 -3.09765625 70.16015625 C-3.07567379 63.77334655 -3.04118416 57.38671358 -3 51 C-8.28 51 -13.56 51 -19 51 C-19 43.41 -19 35.82 -19 28 C-13.72 28 -8.44 28 -3 28 C-3 25.36 -3 22.72 -3 20 C-2.82699099 18.27604495 -2.61397302 16.55516247 -2.34375 14.84375 C-2.22193359 14.05162109 -2.10011719 13.25949219 -1.97460938 12.44335938 C-1.81798828 11.47205078 -1.66136719 10.50074219 -1.5 9.5 C-1.005 6.365 -0.51 3.23 0 0 Z " fill="#01213E" transform="translate(841,542)"/>
<path d="M0 0 C6.27615452 3.81701391 9.97385994 9.56604419 12.29296875 16.39453125 C14.77547638 26.91896499 13.66251494 37.13680261 8.54296875 46.64453125 C3.93163556 52.28060515 -0.31553889 56.16261586 -7.70703125 57.39453125 C-16.79048654 58.27802842 -22.8693676 56.40463308 -30.51953125 51.64453125 C-36.78228184 45.20284493 -38.74070371 36.38251616 -39.08203125 27.64453125 C-38.88177258 18.31483308 -36.30876699 9.77528104 -29.6796875 3.01953125 C-20.94005335 -4.17985054 -10.14912392 -4.566299 0 0 Z " fill="#FBC836" transform="translate(434.70703125,593.60546875)"/>
<path d="M0 0 C2.97 0 5.94 0 9 0 C9 15.84 9 31.68 9 48 C6.36 48 3.72 48 1 48 C0.67 47.01 0.34 46.02 0 45 C-0.53882813 45.4846875 -1.07765625 45.969375 -1.6328125 46.46875 C-5.99921178 49.2932195 -10.99713896 48.7032134 -16 48 C-19.89277517 46.29927299 -21.71127684 43.48120527 -23.875 39.875 C-26.14714066 33.63001461 -26.08626187 26.60614376 -23.3125 20.5625 C-21.02347568 16.58725491 -18.10501204 14.05250602 -14 12 C-8.21963333 11.55535641 -6.53026832 12.23486584 -1 15 C-0.67 10.05 -0.34 5.1 0 0 Z " fill="#071E3E" transform="translate(264,717)"/>
<path d="M0 0 C5.04353145 3.17555684 7.31863172 6.30202973 9 12 C9.74663307 18.34638112 9.28255944 24.40414079 6 30 C1.65133989 34.13653035 -1.02480558 35.15166549 -6.9375 35.1875 C-8.52884766 35.20876953 -8.52884766 35.20876953 -10.15234375 35.23046875 C-13 35 -13 35 -16 33 C-16.33 38.28 -16.66 43.56 -17 49 C-19.64 49 -22.28 49 -25 49 C-25 32.83 -25 16.66 -25 0 C-22.69 0 -20.38 0 -18 0 C-18 1.32 -18 2.64 -18 4 C-17.071875 3.360625 -16.14375 2.72125 -15.1875 2.0625 C-9.91101876 -1.35169374 -5.97497696 -1.47076356 0 0 Z " fill="#06203E" transform="translate(603,730)"/>
<path d="M0 0 C5.28190335 2.87289966 7.87955772 6.41010818 9.8125 12.0625 C10.57332512 17.48337898 9.54516491 22.33546912 6.8125 27.0625 C2.2858131 32.12568313 -2.21566706 34.77018856 -9 35.4375 C-14.91705616 35.26971958 -19.48187118 32.81301379 -23.5625 28.625 C-27.19192096 22.90168233 -28.1820752 17.79895267 -27.1875 11.0625 C-24.93758168 5.41356343 -21.54280067 1.97298949 -16.1875 -0.9375 C-10.269014 -2.91032867 -5.63727637 -2.44842899 0 0 Z " fill="#F9C937" transform="translate(585.1875,427.9375)"/>
<path d="M0 0 C3.95624665 2.70953027 7.33416538 6.69780864 8.859375 11.2734375 C9.39021757 16.79420025 8.63088409 21.47921301 5.859375 26.2734375 C1.54998588 31.09356904 -2.89945398 33.82857089 -9.328125 34.7109375 C-15.027718 34.05688584 -20.59213029 31.94201835 -24.6328125 27.7109375 C-28.2383776 22.44733881 -28.70263532 17.44494705 -28.140625 11.2734375 C-26.03626131 4.96034644 -21.34655624 1.03669968 -15.640625 -2.1015625 C-9.69270601 -3.58854225 -5.28441571 -2.88799463 0 0 Z " fill="#FAC937" transform="translate(773.140625,428.7265625)"/>
<path d="M0 0 C4.05746467 3.51646938 6.71980832 6.38730352 7.30078125 11.8046875 C7.3413492 22.43348943 7.3413492 22.43348943 4 27 C-0.25707911 31.16247736 -4.06696476 33.9433076 -10.16796875 34.03125 C-15.43317224 33.67847255 -18.91075765 32.5186504 -23 29 C-27.43527528 23.24612936 -28.48095977 19.2143966 -28 12 C-26.60910368 5.79990282 -24.22709244 2.55442286 -19 -1 C-12.43620259 -4.53435245 -6.3794927 -3.42602386 0 0 Z " fill="#071E3E" transform="translate(646,732)"/>
<path d="M0 0 C4.84182236 4.26541494 7.43729808 8.54389675 7.875 15 C7.78054849 20.13816225 6.73333975 24.91941321 3.265625 28.85546875 C-1.59535864 33.1276219 -5.9161558 34.77346941 -12.39453125 34.5546875 C-18.30005944 33.83251246 -21.55685221 30.36256664 -25.17578125 26.03125 C-28.4005406 21.40944506 -27.78466936 15.69230893 -27.375 10.3125 C-25.64907479 4.93167434 -22.03204887 1.38715377 -17.375 -1.6875 C-11.6434349 -3.71864527 -5.31152327 -2.65576164 0 0 Z " fill="#091F3E" transform="translate(824.375,731.6875)"/>
<path d="M0 0 C3.13055277 2.21397856 4.71138026 4.77322744 5.89453125 8.33984375 C6.3653741 12.83272766 6.27250244 17.26635915 6.14453125 21.77734375 C6.12648438 22.98583984 6.1084375 24.19433594 6.08984375 25.43945312 C6.04292482 28.40707559 5.97728727 31.37304036 5.89453125 34.33984375 C3.25453125 34.33984375 0.61453125 34.33984375 -2.10546875 34.33984375 C-2.43546875 33.34984375 -2.76546875 32.35984375 -3.10546875 31.33984375 C-3.88921875 31.81421875 -4.67296875 32.28859375 -5.48046875 32.77734375 C-9.71300378 35.29670984 -12.09596061 35.75730276 -17.10546875 35.33984375 C-20.80936896 33.31318137 -22.75909886 31.85939859 -25.10546875 28.33984375 C-25.54308393 24.4013071 -25.51711756 22.09453324 -23.60546875 18.58984375 C-18.05090994 13.59074083 -12.29165666 13.004136 -5.01171875 13.234375 C-4.068125 13.28658203 -4.068125 13.28658203 -3.10546875 13.33984375 C-4.07322973 9.54436454 -4.07322973 9.54436454 -6.10546875 6.33984375 C-8.97911666 5.92237767 -8.97911666 5.92237767 -12.10546875 6.33984375 C-13.06453125 7.36078125 -13.06453125 7.36078125 -14.04296875 8.40234375 C-14.72359375 9.04171875 -15.40421875 9.68109375 -16.10546875 10.33984375 C-19.85546875 10.08984375 -19.85546875 10.08984375 -23.10546875 9.33984375 C-22.88127936 5.41652941 -22.14594783 4.37856287 -19.23046875 1.58984375 C-12.95221671 -2.93049772 -7.04995324 -2.19682861 0 0 Z " fill="#031D3E" transform="translate(739.10546875,730.66015625)"/>
<path d="M0 0 C4.74424521 2.63569178 7.61931493 5.6079448 9.375 10.875 C9.375 13.845 9.375 16.815 9.375 19.875 C1.785 19.875 -5.805 19.875 -13.625 19.875 C-12.965 21.855 -12.305 23.835 -11.625 25.875 C-8.45475235 27.46012383 -5.07832972 27.29872144 -1.625 26.875 C0.384245 25.54141006 0.384245 25.54141006 1.375 23.875 C3.685 24.535 5.995 25.195 8.375 25.875 C7.37761116 29.46559983 6.48779244 30.78672765 3.5 33.125 C-1.37745224 35.85637325 -4.99966609 36.26295406 -10.625 35.875 C-16.30049553 33.83182161 -19.92373721 30.27752559 -22.625 24.875 C-23.30152795 17.51051005 -23.82870901 10.53747436 -19.17578125 4.4296875 C-13.47266426 -1.28779503 -7.7106842 -2.39297096 0 0 Z " fill="#051B3D" transform="translate(303.625,730.125)"/>
<path d="M0 0 C2.50616926 1.75431848 4.56856671 3.37285134 6.5 5.75 C6.5 6.74 6.5 7.73 6.5 8.75 C3.375 10 3.375 10 -0.5 10.75 C-2.53833424 9.4760411 -4.53852126 8.13938077 -6.5 6.75 C-10.95254066 6.29719926 -12.74543433 6.24695622 -16.5 8.75 C-17.08350505 11.20709375 -17.08350505 11.20709375 -16.5 13.75 C-13.40394011 16.68310937 -10.25964341 17.5145571 -6.1875 18.5625 C4.59218161 21.81582733 4.59218161 21.81582733 7.5 26.75 C8.50849177 31.23144355 8.5569206 35.4607746 6.60546875 39.6875 C3.68704684 43.59174336 0.05781752 45.3594794 -4.5 46.75 C-10.32323004 47.30459334 -15.39717999 46.7948926 -20.5 43.75 C-22.75764635 41.58842371 -24.66995682 39.28017334 -26.5 36.75 C-24.73455867 34.8777164 -23.58306856 33.78592154 -21.1875 32.75 C-17.67673231 32.75 -16.65054878 34.28931979 -14.1796875 36.59375 C-11.02531845 38.76512962 -8.20869262 38.17558768 -4.5 37.75 C-3.51 37.09 -2.52 36.43 -1.5 35.75 C-1.2497843 32.66634129 -1.2497843 32.66634129 -1.5 29.75 C-2.17804688 29.51925781 -2.85609375 29.28851562 -3.5546875 29.05078125 C-20.24734982 23.20141343 -20.24734982 23.20141343 -24.625 18.4375 C-25.82552491 14.75017348 -26.3943738 11.52783495 -25.5 7.75 C-19.74941785 -1.77847269 -10.29251254 -3.67589733 0 0 Z " fill="#061D3D" transform="translate(160.5,719.25)"/>
<path d="M0 0 C3.29192695 2.24449565 5.34133675 4.16009565 6.75 7.875 C7.24026884 12.5100646 7.1260503 17.09583496 7 21.75 C6.98195313 23.01070312 6.96390625 24.27140625 6.9453125 25.5703125 C6.89830729 28.67265614 6.83260676 31.7734338 6.75 34.875 C4.44 34.875 2.13 34.875 -0.25 34.875 C-0.25 33.555 -0.25 32.235 -0.25 30.875 C-0.9925 31.535 -1.735 32.195 -2.5 32.875 C-7.26086915 36.04512528 -12.77738691 35.73224848 -18.25 34.875 C-21.5 32.9375 -21.5 32.9375 -23.25 29.875 C-23.92502098 26.71155424 -23.94986441 24.03586303 -23.25 20.875 C-20.39179806 16.6770159 -17.41764607 15.15827887 -12.453125 14.14453125 C-8.7138691 13.68706909 -5.00865504 13.71838937 -1.25 13.875 C-1.91 11.895 -2.57 9.915 -3.25 7.875 C-6.55567489 7.02112895 -6.55567489 7.02112895 -10.25 6.875 C-10.889375 7.535 -11.52875 8.195 -12.1875 8.875 C-14.25 10.875 -14.25 10.875 -16.26953125 10.921875 C-18.27564111 10.65486213 -20.26549933 10.27190013 -22.25 9.875 C-21.32862913 5.82096818 -20.63548724 4.17846868 -17.3125 1.5625 C-11.51768133 -1.63056335 -6.20821252 -2.14899664 0 0 Z " fill="#06233E" transform="translate(488.25,730.125)"/>
<path d="M0 0 C0.62427746 12.65895954 0.62427746 12.65895954 -1.6875 17.625 C-7.70891078 23.80915161 -13.40999089 27.08668391 -22.125 27.375 C-27.36295344 27.19798775 -30.88726224 25.83103939 -34.875 22.375 C-36.6199901 18.69113201 -36.97493316 14.96387299 -36 11 C-32.63909319 5.95229845 -29.49472892 3.7903284 -23.625 2.125 C-22.58956055 1.81332886 -22.58956055 1.81332886 -21.53320312 1.49536133 C-14.33203923 -0.49051822 -7.42135554 -0.47982902 0 0 Z " fill="#F9C936" transform="translate(324,628)"/>
<path d="M0 0 C4.24583412 2.43153496 6.53956081 5.35005244 8 10 C8.22705078 12.86254883 8.22705078 12.86254883 8.1953125 15.95703125 C8.18886719 17.06884766 8.18242187 18.18066406 8.17578125 19.32617188 C8.15902344 20.47666016 8.14226562 21.62714844 8.125 22.8125 C8.11597656 23.98232422 8.10695313 25.15214844 8.09765625 26.35742188 C8.07413732 29.23849053 8.04126852 32.11913989 8 35 C5.03 35 2.06 35 -1 35 C-1.01458252 34.2886792 -1.02916504 33.5773584 -1.04418945 32.84448242 C-1.11861006 29.62493668 -1.21529 26.40643482 -1.3125 23.1875 C-1.33505859 22.06794922 -1.35761719 20.94839844 -1.38085938 19.79492188 C-1.4340332 18.18520508 -1.4340332 18.18520508 -1.48828125 16.54296875 C-1.51446533 15.55321045 -1.54064941 14.56345215 -1.56762695 13.54370117 C-2.06243061 10.63271342 -2.61817706 9.69899389 -5 8 C-8 7.41666667 -8 7.41666667 -11 8 C-13.93830818 10.99680569 -14.3972315 13.30033394 -14.51171875 17.421875 C-14.54716797 18.44667969 -14.58261719 19.47148438 -14.61914062 20.52734375 C-14.65297852 22.12255859 -14.65297852 22.12255859 -14.6875 23.75 C-14.72166016 24.82894531 -14.75582031 25.90789063 -14.79101562 27.01953125 C-14.87340663 29.67958377 -14.94258645 32.33931035 -15 35 C-17.97 35 -20.94 35 -24 35 C-24 23.45 -24 11.9 -24 0 C-21.03 0 -18.06 0 -15 0 C-14.67 0.66 -14.34 1.32 -14 2 C-13.175 1.484375 -12.35 0.96875 -11.5 0.4375 C-7.34582555 -1.26867879 -4.21434257 -1.37679717 0 0 Z " fill="#04203E" transform="translate(344,730)"/>
<path d="M0 0 C2.97 0 5.94 0 9 0 C9.33 0.99 9.66 1.98 10 3 C10.38542969 2.5153125 10.77085937 2.030625 11.16796875 1.53125 C14.24411254 -1.03985526 17.40518322 -0.52520324 21.265625 -0.41796875 C25.60021704 0.2446046 27.1402875 1.70033173 30 5 C31.86525805 8.76846032 32.23820248 11.77525854 32.1953125 15.95703125 C32.18886719 17.06884766 32.18242188 18.18066406 32.17578125 19.32617188 C32.15902344 20.47666016 32.14226563 21.62714844 32.125 22.8125 C32.11597656 23.98232422 32.10695313 25.15214844 32.09765625 26.35742188 C32.07413732 29.23849053 32.04126852 32.11913989 32 35 C29.03 35 26.06 35 23 35 C22.98541748 34.2886792 22.97083496 33.5773584 22.95581055 32.84448242 C22.88138994 29.62493668 22.78471 26.40643482 22.6875 23.1875 C22.66494141 22.06794922 22.64238281 20.94839844 22.61914062 19.79492188 C22.5659668 18.18520508 22.5659668 18.18520508 22.51171875 16.54296875 C22.48553467 15.55321045 22.45935059 14.56345215 22.43237305 13.54370117 C21.93756939 10.63271342 21.38182294 9.69899389 19 8 C16 7.41666667 16 7.41666667 13 8 C10.06169182 10.99680569 9.6027685 13.30033394 9.48828125 17.421875 C9.45283203 18.44667969 9.41738281 19.47148438 9.38085938 20.52734375 C9.34702148 22.12255859 9.34702148 22.12255859 9.3125 23.75 C9.27833984 24.82894531 9.24417969 25.90789063 9.20898438 27.01953125 C9.12659337 29.67958377 9.05741355 32.33931035 9 35 C6.03 35 3.06 35 0 35 C0 23.45 0 11.9 0 0 Z " fill="#05163D" transform="translate(839,730)"/>
<path d="M0 0 C2.97 0 5.94 0 9 0 C9.01981934 0.7113208 9.03963867 1.4226416 9.06005859 2.15551758 C9.15524867 5.37488816 9.26495229 8.5936045 9.375 11.8125 C9.4059375 12.93205078 9.436875 14.05160156 9.46875 15.20507812 C9.50742188 16.27822266 9.54609375 17.35136719 9.5859375 18.45703125 C9.6173584 19.44678955 9.6487793 20.43654785 9.68115234 21.45629883 C9.83773433 24.24075094 9.83773433 24.24075094 12 27 C15.5 27.5 15.5 27.5 19 27 C21.22535794 23.66196309 21.28978404 22.37180289 21.4140625 18.45703125 C21.45273438 17.38388672 21.49140625 16.31074219 21.53125 15.20507812 C21.57765625 13.52575195 21.57765625 13.52575195 21.625 11.8125 C21.66367188 10.68134766 21.70234375 9.55019531 21.7421875 8.38476562 C21.83652533 5.5900075 21.92211652 2.79525722 22 0 C24.97 0 27.94 0 31 0 C31 11.55 31 23.1 31 35 C28.36 35 25.72 35 23 35 C23 34.01 23 33.02 23 32 C22.38125 32.495 21.7625 32.99 21.125 33.5 C16.70844434 35.61994672 12.81602681 35.82450379 8 35 C4.6394279 33.33002245 2.53982143 31.08690039 0.85595703 27.6965332 C-0.10715048 24.66244236 -0.2279215 22.22234611 -0.1953125 19.04296875 C-0.18886719 17.93115234 -0.18242187 16.81933594 -0.17578125 15.67382812 C-0.15902344 14.52333984 -0.14226562 13.37285156 -0.125 12.1875 C-0.11597656 11.01767578 -0.10695312 9.84785156 -0.09765625 8.64257812 C-0.07413732 5.76150947 -0.04126852 2.88086011 0 0 Z " fill="#071E3E" transform="translate(201,730)"/>
<path d="M0 0 C2.64 0 5.28 0 8 0 C8.33 0.99 8.66 1.98 9 3 C9.57814453 2.27103516 9.57814453 2.27103516 10.16796875 1.52734375 C13.24093559 -1.03455398 16.41641301 -0.46357661 20.265625 -0.3515625 C24.08796203 0.13988083 26.21821578 1.36087138 29 4 C30.92844788 7.82014376 31.23717874 10.92635805 31.1953125 15.17578125 C31.18886719 16.33271484 31.18242188 17.48964844 31.17578125 18.68164062 C31.15902344 19.87982422 31.14226563 21.07800781 31.125 22.3125 C31.11597656 23.53001953 31.10695313 24.74753906 31.09765625 26.00195312 C31.07413037 29.00150274 31.04125653 32.00065044 31 35 C28.36 35 25.72 35 23 35 C22.98018066 34.35450195 22.96036133 33.70900391 22.93994141 33.04394531 C22.84453672 30.11222779 22.73492029 27.18120768 22.625 24.25 C22.5940625 23.23421875 22.563125 22.2184375 22.53125 21.171875 C22.49257813 20.1921875 22.45390625 19.2125 22.4140625 18.203125 C22.36693115 16.85202637 22.36693115 16.85202637 22.31884766 15.47363281 C21.97972022 12.84266863 21.50012582 11.18704176 20 9 C16.58333333 7.91666667 16.58333333 7.91666667 13 8 C10.85139927 9.50402051 10.16447508 10.67104985 9 13 C8.84777027 14.66565749 8.75082785 16.33656496 8.68359375 18.0078125 C8.64169922 18.99394531 8.59980469 19.98007812 8.55664062 20.99609375 C8.51732422 22.02863281 8.47800781 23.06117188 8.4375 24.125 C8.39431641 25.16527344 8.35113281 26.20554687 8.30664062 27.27734375 C8.2003712 29.85142528 8.09833417 32.42560508 8 35 C5.36 35 2.72 35 0 35 C0 23.45 0 11.9 0 0 Z " fill="#031B3E" transform="translate(504,730)"/>
<path d="M0 0 C1.77697266 -0.02513672 1.77697266 -0.02513672 3.58984375 -0.05078125 C8.98372668 0.51348322 12.86661637 2.50321273 16.3125 6.6875 C19.67164018 10.86444132 21.0625 13.87506928 21.0625 19.3125 C6.8725 19.3125 -7.3175 19.3125 -21.9375 19.3125 C-18.5375 9.1125 -18.5375 9.1125 -15.5625 5.875 C-14.99789062 5.23691406 -14.43328125 4.59882812 -13.8515625 3.94140625 C-9.5968054 0.32052112 -5.45489953 0.0177684 0 0 Z " fill="#FBCD36" transform="translate(672.9375,588.6875)"/>
<path d="M0 0 C11.22 0 22.44 0 34 0 C34 2.64 34 5.28 34 8 C29.71 8 25.42 8 21 8 C21 20.87 21 33.74 21 47 C18.36 47 15.72 47 13 47 C13 34.13 13 21.26 13 8 C8.71 8 4.42 8 0 8 C0 5.36 0 2.72 0 0 Z " fill="#041F3E" transform="translate(401,718)"/>
<path d="M0 0 C1.65234375 1.31640625 1.65234375 1.31640625 4.02734375 3.87890625 C4.02734375 4.53890625 4.02734375 5.19890625 4.02734375 5.87890625 C0.71484375 7.00390625 0.71484375 7.00390625 -2.97265625 7.87890625 C-3.96265625 7.21890625 -4.95265625 6.55890625 -5.97265625 5.87890625 C-9.09787458 5.71191393 -9.09787458 5.71191393 -11.97265625 5.87890625 C-12.30265625 7.19890625 -12.63265625 8.51890625 -12.97265625 9.87890625 C-9.24980114 11.50765536 -5.57329748 13.01859754 -1.72265625 14.31640625 C0.70118698 15.23239352 2.04895753 15.89781831 4.02734375 17.62890625 C5.51764988 20.98209504 5.52849433 23.24556456 5.02734375 26.87890625 C3.2371059 29.84937498 1.17729547 32.30393039 -1.97265625 33.87890625 C-13.63738326 35.07412471 -13.63738326 35.07412471 -18.453125 32.609375 C-20.20886801 31.12151855 -21.66708209 29.77346123 -22.97265625 27.87890625 C-22.97265625 27.21890625 -22.97265625 26.55890625 -22.97265625 25.87890625 C-19.72265625 24.69140625 -19.72265625 24.69140625 -15.97265625 23.87890625 C-13.97265625 25.25390625 -13.97265625 25.25390625 -11.97265625 26.87890625 C-8.30550776 27.12954357 -8.30550776 27.12954357 -4.97265625 26.87890625 C-4.64265625 25.22890625 -4.31265625 23.57890625 -3.97265625 21.87890625 C-4.85308594 21.64816406 -5.73351562 21.41742187 -6.640625 21.1796875 C-18.92678009 17.72974606 -18.92678009 17.72974606 -21.97265625 12.87890625 C-22.5154538 9.07932338 -22.28986086 6.69990641 -20.91015625 3.12890625 C-15.69162209 -2.93132697 -6.92613586 -3.93623959 0 0 Z " fill="#061C3D" transform="translate(564.97265625,731.12109375)"/>
<path d="M0 0 C2.64 0 5.28 0 8 0 C8 2.97 8 5.94 8 9 C10.64 9 13.28 9 16 9 C16 11.31 16 13.62 16 16 C13.36 16 10.72 16 8 16 C8.33 22.27 8.66 28.54 9 35 C12.465 35.495 12.465 35.495 16 36 C16.04241723 38.33294775 16.04092937 40.66702567 16 43 C15 44 15 44 11.3125 44.25 C7.21350335 44.18376846 4.43149263 43.36936396 1 41 C-1.79279609 36.24469855 -1.22295561 31.01854571 -1.125 25.6875 C-1.11597656 24.75615234 -1.10695313 23.82480469 -1.09765625 22.86523438 C-1.07418263 20.5765564 -1.04134729 18.28841328 -1 16 C-2.65 16 -4.3 16 -6 16 C-6 13.69 -6 11.38 -6 9 C-4.02 9 -2.04 9 0 9 C0 6.03 0 3.06 0 0 Z " fill="#031F3E" transform="translate(756,721)"/>
<path d="M0 0 C2.64 0 5.28 0 8 0 C8 2.97 8 5.94 8 9 C10.64 9 13.28 9 16 9 C16 11.31 16 13.62 16 16 C13.36 16 10.72 16 8 16 C8.33 22.27 8.66 28.54 9 35 C12.465 35.495 12.465 35.495 16 36 C16 38.64 16 41.28 16 44 C6.0625 44.58455882 6.0625 44.58455882 2 41 C-1.43091914 35.70894397 -1.36595956 31.20177675 -1.1875 25.125 C-1.17396484 24.24585938 -1.16042969 23.36671875 -1.14648438 22.4609375 C-1.11136623 20.30702448 -1.05756694 18.15342996 -1 16 C-2.65 16 -4.3 16 -6 16 C-6 13.69 -6 11.38 -6 9 C-4.02 9 -2.04 9 0 9 C0 6.03 0 3.06 0 0 Z " fill="#051F3E" transform="translate(692,721)"/>
<path d="M0 0 C2.31 0 4.62 0 7 0 C7 2.97 7 5.94 7 9 C9.64 9 12.28 9 15 9 C15 11.31 15 13.62 15 16 C12.36 16 9.72 16 7 16 C7.33 22.27 7.66 28.54 8 35 C11.465 35.495 11.465 35.495 15 36 C15.04241723 38.33294775 15.04092937 40.66702567 15 43 C14 44 14 44 10.25 44.1875 C6.72922058 44.11821812 4.04929654 43.91670068 1 42 C-2.57164704 36.64252944 -2.35969801 31.81529763 -2.1875 25.625 C-2.17396484 24.69816406 -2.16042969 23.77132812 -2.14648438 22.81640625 C-2.11133881 20.54366002 -2.06214132 18.27214153 -2 16 C-3.65 16 -5.3 16 -7 16 C-7 13.69 -7 11.38 -7 9 C-5.02 9 -3.04 9 -1 9 C-0.67 6.03 -0.34 3.06 0 0 Z " fill="#0A1F3D" transform="translate(179,721)"/>
<path d="M0 0 C2.31 0 4.62 0 7 0 C7 2.97 7 5.94 7 9 C9.64 9 12.28 9 15 9 C15 11.31 15 13.62 15 16 C12.36 16 9.72 16 7 16 C7.33 22.27 7.66 28.54 8 35 C11.465 35.495 11.465 35.495 15 36 C15 38.64 15 41.28 15 44 C5.19354839 44.57685009 5.19354839 44.57685009 1 41 C-2.88898507 36.27699163 -2.34748548 31.49210148 -2.1875 25.6875 C-2.17396484 24.75615234 -2.16042969 23.82480469 -2.14648438 22.86523438 C-2.11126882 20.57622354 -2.06202099 18.28841542 -2 16 C-3.65 16 -5.3 16 -7 16 C-7 13.69 -7 11.38 -7 9 C-5.02 9 -3.04 9 -1 9 C-0.67 6.03 -0.34 3.06 0 0 Z " fill="#04203E" transform="translate(364,721)"/>
<path d="M0 0 C0 2.97 0 5.94 0 9 C-1.093125 9.226875 -2.18625 9.45375 -3.3125 9.6875 C-6.97497921 10.65166716 -6.97497921 10.65166716 -8.6875 12.9375 C-10.5807776 17.35514773 -10.56972356 21.5509667 -10.6875 26.3125 C-10.72166016 27.24384766 -10.75582031 28.17519531 -10.79101562 29.13476562 C-10.87314888 31.42276341 -10.93825997 33.71136113 -11 36 C-13.97 36 -16.94 36 -20 36 C-20 24.45 -20 12.9 -20 1 C-17.36 1 -14.72 1 -12 1 C-11.67 2.65 -11.34 4.3 -11 6 C-10.21625 5.195625 -9.4325 4.39125 -8.625 3.5625 C-5.19929198 0.21835645 -4.86313592 0 0 0 Z " fill="#07203E" transform="translate(681,729)"/>
<path d="M0 0 C0 2.97 0 5.94 0 9 C-1.6396875 9.37125 -1.6396875 9.37125 -3.3125 9.75 C-7.2370552 11.08035769 -7.99537277 11.56005816 -10 15 C-10.49758752 17.40554294 -10.49758752 17.40554294 -10.51171875 19.984375 C-10.54716797 20.91894531 -10.58261719 21.85351562 -10.61914062 22.81640625 C-10.65297852 24.26853516 -10.65297852 24.26853516 -10.6875 25.75 C-10.72166016 26.73355469 -10.75582031 27.71710937 -10.79101562 28.73046875 C-10.87334309 31.15324858 -10.93835225 33.5766058 -11 36 C-13.97 36 -16.94 36 -20 36 C-20 24.45 -20 12.9 -20 1 C-17.36 1 -14.72 1 -12 1 C-11.67 2.32 -11.34 3.64 -11 5 C-10.21625 4.360625 -9.4325 3.72125 -8.625 3.0625 C-5.11629739 0.30566224 -4.59790411 0 0 0 Z " fill="#021B3D" transform="translate(461,729)"/>
<path d="M0 0 C3.95148397 2.19526887 5.93326971 4.06877337 8.375 7.875 C9.29546579 11.30757033 10.02173501 14.58152998 8.375 17.875 C3.095 17.875 -2.185 17.875 -7.625 17.875 C-7.625 17.545 -7.625 17.215 -7.625 16.875 C-9.605 16.545 -11.585 16.215 -13.625 15.875 C-14.63246004 12.74067988 -14.40954137 11.01316549 -13.625 7.875 C-13.9312434 6.53518514 -14.25951555 5.19988113 -14.625 3.875 C-14.295 3.545 -13.965 3.215 -13.625 2.875 C-14.285 2.875 -14.945 2.875 -15.625 2.875 C-15.955 4.195 -16.285 5.515 -16.625 6.875 C-17.615 6.215 -18.605 5.555 -19.625 4.875 C-13.00755106 -0.63954078 -8.67950816 -2.69364046 0 0 Z " fill="#09213E" transform="translate(303.625,730.125)"/>
<path d="M0 0 C-0.185625 0.639375 -0.37125 1.27875 -0.5625 1.9375 C-0.706875 2.618125 -0.85125 3.29875 -1 4 C-0.67 4.33 -0.34 4.66 0 5 C0.38721999 8.48497993 0.39387281 10.37636806 -1.5 13.375 C-5.13251074 15.73613198 -7.71843297 15.2854378 -12 15 C-10.87465895 16.35618499 -10.87465895 16.35618499 -7.9375 16.0625 C-6.4834375 16.0315625 -6.4834375 16.0315625 -5 16 C-5 16.66 -5 17.32 -5 18 C-4.01 18 -3.02 18 -2 18 C-2 18.66 -2 19.32 -2 20 C-6.14252247 22.00849574 -9.4150158 22.48262992 -14 22 C-17.70390021 19.97333762 -19.65363011 18.51955484 -22 15 C-22.43761518 11.06146335 -22.41164881 8.75468949 -20.5 5.25 C-14.44390292 -0.20048737 -7.85649946 -0.43468337 0 0 Z " fill="#0B1F3D" transform="translate(736,744)"/>
<path d="M0 0 C2.80576633 1.65468271 3.70739586 2.92915014 4.5625 6.05859375 C5.40112801 11.23886886 4.96318316 14.5003515 2 19 C0 21 0 21 -3.875 21.375 C-7.05756788 21.30568818 -7.80924156 21.14673726 -10.4375 19.125 C-13.55601403 14.88382092 -13.51509745 11.14209354 -13 6 C-10.16560023 -0.18414495 -6.55670716 -0.88288334 0 0 Z " fill="#F7CD37" transform="translate(640,737)"/>
<path d="M0 0 C2.97 0 5.94 0 9 0 C9 11.55 9 23.1 9 35 C6.03 35 3.06 35 0 35 C0 23.45 0 11.9 0 0 Z " fill="#02233F" transform="translate(780,730)"/>
<path d="M0 0 C2.12890625 0.46875 2.12890625 0.46875 4.69140625 2.34375 C6.72948751 6.77436144 6.79874314 10.6695657 6.12890625 15.46875 C4.10259046 19.98190789 4.10259046 19.98190789 1.12890625 21.46875 C-3.04628221 21.94141285 -5.19676931 21.88482253 -8.80859375 19.65625 C-11.83040948 14.98617114 -11.71476107 10.87957793 -10.87109375 5.46875 C-8.50268992 0.21707194 -5.39906959 -0.35578712 0 0 Z " fill="#FACE37" transform="translate(816.87109375,736.53125)"/>
<path d="M0 0 C3.6875 0.4375 3.6875 0.4375 6.625 2.25 C9.64412001 6.91591274 9.53866344 11.03058555 8.6875 16.4375 C7.1875 19.625 7.1875 19.625 4.6875 21.4375 C-0.23133328 22.21826719 -2.13145862 22.20025589 -6.3125 19.5 C-8.99984386 15.38500472 -9.12930274 12.22535434 -8.3125 7.4375 C-6.32043077 3.18171573 -4.81629325 0.6361142 0 0 Z " fill="#F8CE36" transform="translate(594.3125,736.5625)"/>
<path d="M0 0 C2.88258588 0.65701649 4.18570607 2.0989665 5.90234375 4.43359375 C7.49669394 7.62229414 7.28867209 10.96329955 6.90234375 14.43359375 C5.50616825 17.35286979 4.18031379 19.15562371 1.90234375 21.43359375 C-5.01969667 22.21511444 -5.01969667 22.21511444 -8.59765625 19.62109375 C-10.82750629 14.88266243 -10.83800187 10.57745345 -10.09765625 5.43359375 C-7.77116746 0.48980507 -5.17100444 -0.31777122 0 0 Z " fill="#F7CC37" transform="translate(258.09765625,736.56640625)"/>
<path d="M0 0 C1.98 0.66 3.96 1.32 6 2 C6.66 1.34 7.32 0.68 8 0 C8 13.2 8 26.4 8 40 C5.36 40 2.72 40 0 40 C0 26.8 0 13.6 0 0 Z " fill="#00233F" transform="translate(414,725)"/>
<path d="M0 0 C0.33 0 0.66 0 1 0 C1 8.25 1 16.5 1 25 C-1.31 25 -3.62 25 -6 25 C-6 23.68 -6 22.36 -6 21 C-6.7425 21.66 -7.485 22.32 -8.25 23 C-13.01086915 26.17012528 -18.52738691 25.85724848 -24 25 C-27.25 23.0625 -27.25 23.0625 -29 20 C-29.67474463 16.83784934 -29.71375456 14.15765016 -29 11 C-26.8125 7.9375 -26.8125 7.9375 -24 6 C-21.1875 5.6875 -21.1875 5.6875 -19 6 C-19.99 6.33 -20.98 6.66 -22 7 C-20.68 7.33 -19.36 7.66 -18 8 C-18.78697325 11.41021743 -19.87119943 14.68885166 -21 18 C-14.93123538 18.57328305 -14.93123538 18.57328305 -9.5 16.3125 C-7.8824406 13.81876259 -7.32642811 11.93785297 -7 9 C-6.67 9 -6.34 9 -6 9 C-5.63076923 15.4 -5.63076923 15.4 -7.5 18.4375 C-7.995 18.953125 -8.49 19.46875 -9 20 C-7.68 20 -6.36 20 -5 20 C-5 20.99 -5 21.98 -5 23 C-3.35 23 -1.7 23 0 23 C0 15.41 0 7.82 0 0 Z " fill="#061D3E" transform="translate(494,740)"/>
<path d="M0 0 C4.03919345 4.03919345 6.84168113 7.39787822 10 12 C9.67 12.66 9.34 13.32 9 14 C8.401875 13.195625 7.80375 12.39125 7.1875 11.5625 C5.19052724 8.77672016 5.19052724 8.77672016 2 8 C2.00444122 9.02286102 2.00888245 10.04572205 2.01345825 11.09957886 C2.05394266 20.72330065 2.08395467 30.34700525 2.10362434 39.97079277 C2.11407654 44.91887832 2.12826183 49.86689532 2.15087891 54.81494141 C2.17255623 59.58707481 2.1845578 64.35914213 2.18975449 69.13132095 C2.19345946 70.9550493 2.200694 72.77877389 2.21146011 74.60247421 C2.22590721 77.15026512 2.22798081 79.69778042 2.22705078 82.24560547 C2.23424133 83.00517548 2.24143188 83.76474548 2.24884033 84.54733276 C2.22810432 89.77189568 2.22810432 89.77189568 0 92 C-2.70556641 92.22705078 -2.70556641 92.22705078 -6.1015625 92.1953125 C-7.31328125 92.18886719 -8.525 92.18242188 -9.7734375 92.17578125 C-11.04445313 92.15902344 -12.31546875 92.14226562 -13.625 92.125 C-15.543125 92.11146484 -15.543125 92.11146484 -17.5 92.09765625 C-20.66685167 92.07402303 -23.83333424 92.04107629 -27 92 C-27 91.34 -27 90.68 -27 90 C-18.09 90 -9.18 90 0 90 C0 60.3 0 30.6 0 0 Z " fill="#FCE334" transform="translate(517,582)"/>
<path d="M0 0 C-0.33 1.65 -0.66 3.3 -1 5 C-1.62648438 5.09796875 -2.25296875 5.1959375 -2.8984375 5.296875 C-3.71570313 5.44640625 -4.53296875 5.5959375 -5.375 5.75 C-6.18710937 5.88921875 -6.99921875 6.0284375 -7.8359375 6.171875 C-10.11365066 6.79728809 -10.11365066 6.79728809 -11.109375 8.74023438 C-12.10808493 11.2742418 -12.31463308 13.26663743 -12.4140625 15.984375 C-12.45273437 16.91894531 -12.49140625 17.85351562 -12.53125 18.81640625 C-12.5621875 19.78449219 -12.593125 20.75257813 -12.625 21.75 C-12.66367187 22.73355469 -12.70234375 23.71710937 -12.7421875 24.73046875 C-12.83628426 27.15346037 -12.92192328 29.57644796 -13 32 C-14.98 32 -16.96 32 -19 32 C-19 21.77 -19 11.54 -19 1 C-14 1 -14 1 -12.1875 2.5 C-11.795625 2.995 -11.40375 3.49 -11 4 C-10.29875 3.34 -9.5975 2.68 -8.875 2 C-5.56539771 -0.30233203 -3.93774177 -0.36630156 0 0 Z " fill="#02243E" transform="translate(524,731)"/>
<path d="M0 0 C0.33 1.32 0.66 2.64 1 4 C64.36 4 127.72 4 193 4 C193.33 3.01 193.66 2.02 194 1 C194.99 2.98 194.99 2.98 196 5 C130.99 5 65.98 5 -1 5 C-0.67 3.35 -0.34 1.7 0 0 Z " fill="#E4B432" transform="translate(572,394)"/>
<path d="M0 0 C1.40416706 2.62111184 2.6169847 5.03163146 3 8 C2.01 9.485 2.01 9.485 1 11 C0.6336141 13.41713479 0.6336141 13.41713479 0.5859375 16.10546875 C0.54726563 17.08837891 0.50859375 18.07128906 0.46875 19.08398438 C0.42234375 20.62022461 0.42234375 20.62022461 0.375 22.1875 C0.33632813 23.22326172 0.29765625 24.25902344 0.2578125 25.32617188 C0.16351704 27.88393622 0.07791798 30.44169287 0 33 C-1.98 33 -3.96 33 -6 33 C-6 22.77 -6 12.54 -6 2 C-4.35 2 -2.7 2 -1 2 C-0.67 1.34 -0.34 0.68 0 0 Z " fill="#02253E" transform="translate(847,730)"/>
<path d="M0 0 C5.8048411 -0.34829047 9.9434572 -0.25063466 15 3 C15.639375 3.391875 16.27875 3.78375 16.9375 4.1875 C18.75663712 7.29073392 17.7186229 10.63958245 17 14 C16.731875 14.70125 16.46375 15.4025 16.1875 16.125 C15.76076253 18.31638663 15.76076253 18.31638663 18 20.8125 C20 24 20 24 19.75 27.875 C19.5025 28.90625 19.255 29.9375 19 31 C18.67 31 18.34 31 18 31 C17.91363281 30.31292969 17.82726562 29.62585938 17.73828125 28.91796875 C17.02688473 23.43754609 17.02688473 23.43754609 14 19.0625 C10.44089059 17.80198209 6.85646515 16.71453423 3.20703125 15.74609375 C1 15 1 15 -1 13 C-0.46428571 9.46428571 -0.46428571 9.46428571 1 8 C4.24748893 7.7785803 6.53540172 7.80736169 9.5625 9.0625 C12.47578317 10.18299353 14.04504207 9.84427369 17 9 C14.09039217 4.74749625 12.0136219 3.17967574 7 2 C4.67305036 1.62468554 2.34023315 1.28082798 0 1 C0 0.67 0 0.34 0 0 Z " fill="#F5D537" transform="translate(552,728)"/>
<path d="M0 0 C0.33 0 0.66 0 1 0 C1.79404728 31.00585691 2.1415649 61.98421981 2 93 C-3.95794393 87.24065421 -3.95794393 87.24065421 -4.125 82.3125 C-4.08375 81.219375 -4.0425 80.12625 -4 79 C-3.67 79 -3.34 79 -3 79 C-2.01 82.465 -2.01 82.465 -1 86 C-0.67 57.62 -0.34 29.24 0 0 Z " fill="#F9E536" transform="translate(579,535)"/>
<path d="M0 0 C0.33 0 0.66 0 1 0 C1.08090971 1.62418745 1.13914995 3.24951745 1.1875 4.875 C1.23970703 6.23238281 1.23970703 6.23238281 1.29296875 7.6171875 C1.19628906 8.40351562 1.09960938 9.18984375 1 10 C0.01 10.66 -0.98 11.32 -2 12 C-1.67 12.99 -1.34 13.98 -1 15 C-2.093125 14.773125 -3.18625 14.54625 -4.3125 14.3125 C-5.529375 14.209375 -6.74625 14.10625 -8 14 C-8.474375 14.474375 -8.94875 14.94875 -9.4375 15.4375 C-11 17 -11 17 -14.9375 17.4375 C-18.00578283 17.31883713 -18.88925815 17.0775193 -21.5 15.25 C-23 13 -23 13 -23 9 C-15.41 9 -7.82 9 0 9 C0 6.03 0 3.06 0 0 Z " fill="#F8D838" transform="translate(313,741)"/>
<path d="M0 0 C0.66 0.33 1.32 0.66 2 1 C1.38125 1.061875 0.7625 1.12375 0.125 1.1875 C-2.27761141 1.828919 -2.27761141 1.828919 -3.25 4.5625 C-3.4975 5.366875 -3.745 6.17125 -4 7 C-4.9075 6.9175 -5.815 6.835 -6.75 6.75 C-10.09775543 6.63364556 -10.09775543 6.63364556 -11.875 9.0625 C-14 11 -14 11 -16.0234375 11.04296875 C-18.02845028 10.77915128 -20.01697688 10.39660462 -22 10 C-21.07862913 5.94596818 -20.38548724 4.30346868 -17.0625 1.6875 C-11.45223532 -1.40387033 -6.05971648 -2.01990549 0 0 Z " fill="#05183D" transform="translate(488,730)"/>
<path d="M0 0 C-6.27 2.64 -12.54 5.28 -19 8 C-13.26113245 8.97928639 -13.26113245 8.97928639 -8 8 C-9.8272352 11.65447041 -14.51215745 12.32999006 -18.1875 13.6875 C-19.03892578 14.02072266 -19.89035156 14.35394531 -20.76757812 14.69726562 C-25.48512361 16.45220714 -29.01967803 17.69187971 -34 16 C-34.33 15.34 -34.66 14.68 -35 14 C-31.37 14 -27.74 14 -24 14 C-24 12.68 -24 11.36 -24 10 C-25.546875 10.061875 -25.546875 10.061875 -27.125 10.125 C-30.90931105 10.00292545 -33.4901284 9.32595149 -37 8 C-37.763125 7.835 -38.52625 7.67 -39.3125 7.5 C-39.869375 7.335 -40.42625 7.17 -41 7 C-41.33 6.34 -41.66 5.68 -42 5 C-35.54910714 5.75892857 -35.54910714 5.75892857 -32.4375 7.125 C-25.47369828 9.62482626 -16.86843219 4.31861673 -10.43554688 1.70703125 C-9.06946289 1.16755859 -9.06946289 1.16755859 -7.67578125 0.6171875 C-6.84989502 0.28315918 -6.02400879 -0.05086914 -5.1730957 -0.39501953 C-3 -1 -3 -1 0 0 Z " fill="#F3D936" transform="translate(698,300)"/>
<path d="M0 0 C2.31 0 4.62 0 7 0 C7 1.65 7 3.3 7 5 C6.67 4.01 6.34 3.02 6 2 C4.35 2 2.7 2 1 2 C1 16.85 1 31.7 1 47 C2.65 47 4.3 47 6 47 C5.97679687 45.94039062 5.95359375 44.88078125 5.9296875 43.7890625 C5.91093056 42.4010487 5.89273028 41.0130273 5.875 39.625 C5.85824219 38.92632813 5.84148438 38.22765625 5.82421875 37.5078125 C5.80655733 35.67102514 5.89696739 33.83398037 6 32 C6.66 31.34 7.32 30.68 8 30 C8.804375 30.495 9.60875 30.99 10.4375 31.5 C15.97805076 33.83286348 21.25084035 33.61288642 27 32 C25.875 33.48046875 25.875 33.48046875 24 35 C21.1875 35.36328125 21.1875 35.36328125 18 35.3125 C16.4221875 35.30669922 16.4221875 35.30669922 14.8125 35.30078125 C12 35 12 35 9 33 C8.67 38.28 8.34 43.56 8 49 C5.36 49 2.72 49 0 49 C0 32.83 0 16.66 0 0 Z " fill="#04093C" transform="translate(578,730)"/>
<path d="M0 0 C4.329423 0.274884 8.33706471 0.70371277 11.9375 3.25 C16.99386806 9.57712489 16.40956189 15.85981835 16.1875 23.6875 C16.16945313 24.89599609 16.15140625 26.10449219 16.1328125 27.34960938 C16.08589357 30.31723184 16.02025602 33.28319661 15.9375 36.25 C13.2975 36.25 10.6575 36.25 7.9375 36.25 C8.2675 35.26 8.5975 34.27 8.9375 33.25 C10.5875 33.58 12.2375 33.91 13.9375 34.25 C13.82758359 30.16611387 13.69696145 26.08314589 13.5625 22 C13.5315625 20.84113281 13.500625 19.68226563 13.46875 18.48828125 C13.43007813 17.37324219 13.39140625 16.25820313 13.3515625 15.109375 C13.3201416 14.08295898 13.2887207 13.05654297 13.25634766 11.99902344 C12.93542385 9.23209993 12.50656978 7.54127718 10.9375 5.25 C9.9475 4.92 8.9575 4.59 7.9375 4.25 C7.6075 5.57 7.2775 6.89 6.9375 8.25 C4.6275 7.59 2.3175 6.93 -0.0625 6.25 C-0.0625 5.26 -0.0625 4.27 -0.0625 3.25 C-1.3825 2.59 -2.7025 1.93 -4.0625 1.25 C-3.0625 0.25 -3.0625 0.25 0 0 Z " fill="#0F203D" transform="translate(729.0625,728.75)"/>
<path d="M0 0 C2.97 0 5.94 0 9 0 C9 11.55 9 23.1 9 35 C6.03 35 3.06 35 0 35 C0 23.45 0 11.9 0 0 Z M2 2 C2 12.23 2 22.46 2 33 C3.98 33 5.96 33 8 33 C8 22.77 8 12.54 8 2 C6.02 2 4.04 2 2 2 Z " fill="#1D1C3D" transform="translate(780,730)"/>
<path d="M0 0 C0.99 0.495 0.99 0.495 2 1 C2 13.21 2 25.42 2 38 C3.65 38 5.3 38 7 38 C7 25.46 7 12.92 7 0 C7.33 0 7.66 0 8 0 C8 13.2 8 26.4 8 40 C5.36 40 2.72 40 0 40 C0 26.8 0 13.6 0 0 Z " fill="#00073C" transform="translate(414,725)"/>
<path d="M0 0 C2.64 0 5.28 0 8 0 C7.67 1.32 7.34 2.64 7 4 C7 3.34 7 2.68 7 2 C5.35 2 3.7 2 2 2 C2 12.23 2 22.46 2 33 C3.98 33 5.96 33 8 33 C7.97643433 32.03175293 7.97643433 32.03175293 7.95239258 31.04394531 C7.88994198 28.11271971 7.8509777 25.18163421 7.8125 22.25 C7.77479492 20.72632813 7.77479492 20.72632813 7.73632812 19.171875 C7.72182617 17.70234375 7.72182617 17.70234375 7.70703125 16.203125 C7.68346558 14.85202637 7.68346558 14.85202637 7.65942383 13.47363281 C8.06238228 10.54691237 9.0655403 9.18658651 11 7 C11.66 7.33 12.32 7.66 13 8 C12.2733313 8.82226074 12.2733313 8.82226074 11.53198242 9.66113281 C9.69995973 12.45806944 9.58046773 14.10316177 9.48828125 17.421875 C9.45283203 18.44667969 9.41738281 19.47148438 9.38085938 20.52734375 C9.34702148 22.12255859 9.34702148 22.12255859 9.3125 23.75 C9.27833984 24.82894531 9.24417969 25.90789063 9.20898438 27.01953125 C9.12659337 29.67958377 9.05741355 32.33931035 9 35 C6.03 35 3.06 35 0 35 C0 23.45 0 11.9 0 0 Z " fill="#1F1D3B" transform="translate(839,730)"/>
<path d="M0 0 C0.99 0.33 1.98 0.66 3 1 C3 8.92 3 16.84 3 25 C1.35 25 -0.3 25 -2 25 C-2.25408976 21.20956819 -2.47403593 17.41791947 -2.6875 13.625 C-2.76033203 12.54476562 -2.83316406 11.46453125 -2.90820312 10.3515625 C-2.96298828 9.3203125 -3.01777344 8.2890625 -3.07421875 7.2265625 C-3.13182373 6.27346191 -3.18942871 5.32036133 -3.2487793 4.33837891 C-3.16668213 3.56671387 -3.08458496 2.79504883 -3 2 C-2.01 1.34 -1.02 0.68 0 0 Z " fill="#02243F" transform="translate(866,738)"/>
<path d="M0 0 C2.64 0 5.28 0 8 0 C8.33 0.99 8.66 1.98 9 3 C9.57814453 2.27103516 9.57814453 2.27103516 10.16796875 1.52734375 C13.23747491 -1.03166885 16.41219751 -0.4577986 20.2578125 -0.37109375 C24.14895018 0.15548471 26.06174796 1.45880905 29 4 C26 4 26 4 24.3125 3 C20.89798566 1.52345326 17.62272126 1.4031532 14 2 C11.69600326 3.1179731 10.0189657 4.38482744 8 6 C7.34 5.01 6.68 4.02 6 3 C4.35 2.67 2.7 2.34 1 2 C1 12.23 1 22.46 1 33 C2.98 33 4.96 33 7 33 C6.98952637 32.37432129 6.97905273 31.74864258 6.96826172 31.10400391 C6.92676809 28.2777099 6.90069527 25.45147989 6.875 22.625 C6.84986328 21.14773438 6.84986328 21.14773438 6.82421875 19.640625 C6.81777344 18.69960938 6.81132812 17.75859375 6.8046875 16.7890625 C6.79421387 15.91975098 6.78374023 15.05043945 6.77294922 14.15478516 C7 12 7 12 9 10 C8.67 18.25 8.34 26.5 8 35 C5.36 35 2.72 35 0 35 C0 23.45 0 11.9 0 0 Z " fill="#05073D" transform="translate(504,730)"/>
<path d="M0 0 C1.875 1.1875 1.875 1.1875 3 3 C3 4.65 3 6.3 3 8 C-2.61 8.66 -8.22 9.32 -14 10 C-13.34 8.68 -12.68 7.36 -12 6 C-14.97 5.505 -14.97 5.505 -18 5 C-18.33 4.01 -18.66 3.02 -19 2 C-18.34 2 -17.68 2 -17 2 C-17 2.66 -17 3.32 -17 4 C-14.69 4.33 -12.38 4.66 -10 5 C-9.71125 4.360625 -9.4225 3.72125 -9.125 3.0625 C-7.02177316 -0.79341588 -4.05573867 -0.33108071 0 0 Z " fill="#F4D237" transform="translate(733,736)"/>
<path d="M0 0 C0.33 0 0.66 0 1 0 C1 8.25 1 16.5 1 25 C-1.31 25 -3.62 25 -6 25 C-6 23.68 -6 22.36 -6 21 C-6.99 21.66 -7.98 22.32 -9 23 C-13.57781525 22.80129683 -17.77355388 21.69684439 -21.75 19.4375 C-23.76051142 15.51700274 -22.28007948 12.0478189 -21 8 C-20.01 8 -19.02 8 -18 8 C-18.78697325 11.41021743 -19.87119943 14.68885166 -21 18 C-14.93123538 18.57328305 -14.93123538 18.57328305 -9.5 16.3125 C-7.8824406 13.81876259 -7.32642811 11.93785297 -7 9 C-6.67 9 -6.34 9 -6 9 C-5.63076923 15.4 -5.63076923 15.4 -7.5 18.4375 C-7.995 18.953125 -8.49 19.46875 -9 20 C-7.68 20 -6.36 20 -5 20 C-5 20.99 -5 21.98 -5 23 C-3.35 23 -1.7 23 0 23 C0 15.41 0 7.82 0 0 Z " fill="#040C3C" transform="translate(494,740)"/>
<path d="M0 0 C0.31424507 3.45669582 0.37956836 5.39901677 -1.5 8.375 C-5.201708 10.7811102 -7.62688032 10.42320513 -12 10 C-12.66 9.34 -13.32 8.68 -14 8 C-13.625 5.375 -13.625 5.375 -13 3 C-11.58603098 2.49242138 -10.16868271 1.99425075 -8.75 1.5 C-7.96109375 1.2215625 -7.1721875 0.943125 -6.359375 0.65625 C-4 0 -4 0 0 0 Z " fill="#F5C336" transform="translate(736,749)"/>
<path d="M0 0 C0.33 0.66 0.66 1.32 1 2 C0.690625 2.886875 0.38125 3.77375 0.0625 4.6875 C-1.83820004 10.6132119 -1.30306001 15.5454713 1.015625 21.2109375 C2.49858606 23.90616038 4.45897442 25.32664169 7 27 C7.763125 27.5775 8.52625 28.155 9.3125 28.75 C10.1478125 29.36875 10.1478125 29.36875 11 30 C6.27743113 29.58330275 3.08288962 27.49925689 0 24 C-1.27952019 21.69399906 -2.11695524 19.50196015 -3 17 C-3.5775 17.78375 -4.155 18.5675 -4.75 19.375 C-6.82897637 21.80047244 -8.09040333 22.85694417 -11 24 C-10.34 21.36 -9.68 18.72 -9 16 C-8.67 16 -8.34 16 -8 16 C-7.67 13.36 -7.34 10.72 -7 8 C-5.35 7.34 -3.7 6.68 -2 6 C-2.33 4.68 -2.66 3.36 -3 2 C-2.01 1.34 -1.02 0.68 0 0 Z " fill="#F5C738" transform="translate(620,736)"/>
<path d="M0 0 C0.48309179 6.40096618 0.48309179 6.40096618 -1.5625 8.9375 C-4.83782709 10.36520668 -7.4651848 10.26183816 -11 10 C-11.66 9.67 -12.32 9.34 -13 9 C-13.3125 6.6875 -13.3125 6.6875 -13 4 C-8.8295862 0.84401118 -5.16257747 -0.13952912 0 0 Z " fill="#F5D237" transform="translate(486,749)"/>
<path d="M0 0 C0.33 0 0.66 0 1 0 C1.33 10.89 1.66 21.78 2 33 C3.65 33 5.3 33 7 33 C7 26.07 7 19.14 7 12 C7.99 12 8.98 12 10 12 C9.67 19.59 9.34 27.18 9 35 C6.03 35 3.06 35 0 35 C0 23.45 0 11.9 0 0 Z " fill="#21243B" transform="translate(320,730)"/>
<path d="M0 0 C1.65 0 3.3 0 5 0 C5 2.97 5 5.94 5 9 C7.64 9 10.28 9 13 9 C13 11.31 13 13.62 13 16 C10.36 16 7.72 16 5 16 C5.13857841 19.12536637 5.28709569 22.25018217 5.4375 25.375 C5.47681641 26.26445313 5.51613281 27.15390625 5.55664062 28.0703125 C5.59853516 28.92109375 5.64042969 29.771875 5.68359375 30.6484375 C5.72025146 31.43395996 5.75690918 32.21948242 5.79467773 33.02880859 C5.890891 35.07523496 5.890891 35.07523496 7 37 C6.01 36.67 5.02 36.34 4 36 C2.86054484 33.72108967 2.87105786 32.43217896 2.8671875 29.90234375 C2.86589844 29.10119141 2.86460937 28.30003906 2.86328125 27.47460938 C2.86714844 26.63736328 2.87101563 25.80011719 2.875 24.9375 C2.87113281 24.09638672 2.86726562 23.25527344 2.86328125 22.38867188 C2.87337318 16.12662682 2.87337318 16.12662682 4 15 C6.33297433 14.95907063 8.66705225 14.95758277 11 15 C11 13.68 11 12.36 11 11 C9.576875 11.061875 9.576875 11.061875 8.125 11.125 C5 11 5 11 3 9 C2.73008094 6.31160615 2.91262643 3.70858064 3 1 C2.01 0.67 1.02 0.34 0 0 Z " fill="#040C3B" transform="translate(759,721)"/>
<path d="M0 0 C4.455 0.99 4.455 0.99 9 2 C9.625 4.375 9.625 4.375 10 7 C8 9 8 9 4.625 9.3125 C1 9 1 9 -1 7.4375 C-3.08972422 5.6199976 -3.08972422 5.6199976 -6.6875 6.1875 C-8.3271875 6.5896875 -8.3271875 6.5896875 -10 7 C-10.33 7.66 -10.66 8.32 -11 9 C-11 8.01 -11 7.02 -11 6 C-10.28972656 5.81824219 -9.57945312 5.63648438 -8.84765625 5.44921875 C-7.46900391 5.07216797 -7.46900391 5.07216797 -6.0625 4.6875 C-5.14597656 4.44386719 -4.22945312 4.20023438 -3.28515625 3.94921875 C-2.53105469 3.63597656 -1.77695312 3.32273437 -1 3 C-0.67 2.01 -0.34 1.02 0 0 Z " fill="#F4D238" transform="translate(552,750)"/>
<path d="M0 0 C2.64 0 5.28 0 8 0 C8 1.65 8 3.3 8 5 C7.67 4.01 7.34 3.02 7 2 C5.35 2 3.7 2 2 2 C2 12.23 2 22.46 2 33 C3.65 33 5.3 33 7 33 C7 33.66 7 34.32 7 35 C4.69 35 2.38 35 0 35 C0 23.45 0 11.9 0 0 Z " fill="#010D3C" transform="translate(661,730)"/>
<path d="M0 0 C0.33 0 0.66 0 1 0 C1 2.64 1 5.28 1 8 C3.31 8 5.62 8 8 8 C8.02689216 9.47906892 8.04634621 10.95827483 8.0625 12.4375 C8.07410156 13.26121094 8.08570313 14.08492187 8.09765625 14.93359375 C8 17 8 17 7 18 C5.02 18 3.04 18 1 18 C1 23.61 1 29.22 1 35 C2.98 35 4.96 35 7 35 C7 35.33 7 35.66 7 36 C4.66705225 36.04241723 2.33297433 36.04092937 0 36 C-1 35 -1 35 -1.11352539 33.14233398 C-1.10828857 32.35157471 -1.10305176 31.56081543 -1.09765625 30.74609375 C-1.09443359 29.89208984 -1.09121094 29.03808594 -1.08789062 28.15820312 C-1.07951172 27.26037109 -1.07113281 26.36253906 -1.0625 25.4375 C-1.05798828 24.53580078 -1.05347656 23.63410156 -1.04882812 22.70507812 C-1.03700225 20.46998686 -1.0205222 18.23502563 -1 16 C1.64 16 4.28 16 7 16 C7 13.69 7 11.38 7 9 C4.36 9 1.72 9 -1 9 C-1.09765625 2.84765625 -1.09765625 2.84765625 -1 1 C-0.67 0.67 -0.34 0.34 0 0 Z " fill="#F8E237" transform="translate(372,721)"/>
<path d="M0 0 C5.4878236 -0.3359892 9.1314946 0.42795941 14 3 C16.4375 5.1875 16.4375 5.1875 18 7 C16 7 14 7 12 7 C11.67 8.32 11.34 9.64 11 11 C10.01 10.34 9.02 9.68 8 9 C6.04620501 8.72214568 6.04620501 8.72214568 4 8.8125 C2.9790625 8.82216797 2.9790625 8.82216797 1.9375 8.83203125 C-0.21758209 8.94302254 -0.21758209 8.94302254 -3 10 C-3 9.34 -3 8.68 -3 8 C-1.70990357 7.49596232 -0.41786211 6.99690074 0.875 6.5 C1.95394531 6.08234375 1.95394531 6.08234375 3.0546875 5.65625 C5 5 5 5 7 5 C7 4.34 7 3.68 7 3 C4.36 2.67 1.72 2.34 -1 2 C-0.67 1.34 -0.34 0.68 0 0 Z " fill="#13203E" transform="translate(632,729)"/>
<path d="M0 0 C0.66 0.33 1.32 0.66 2 1 C2 9.25 2 17.5 2 26 C-0.97 26 -3.94 26 -7 26 C-7 18.08 -7 10.16 -7 2 C-6.67 2 -6.34 2 -6 2 C-6 9.26 -6 16.52 -6 24 C-4.02 24 -2.04 24 0 24 C0 16.08 0 8.16 0 0 Z " fill="#1E1E3C" transform="translate(350,739)"/>
<path d="M0 0 C3.125 0.375 3.125 0.375 5.5 2.1875 C7.125 4.375 7.125 4.375 7.125 7.375 C2.175 7.375 -2.775 7.375 -7.875 7.375 C-3.74292453 0.48820755 -3.74292453 0.48820755 0 0 Z " fill="#F5D537" transform="translate(296.875,735.625)"/>
<path d="M0 0 C2.97 0 5.94 0 9 0 C9 11.55 9 23.1 9 35 C8.67 35 8.34 35 8 35 C7.67 24.11 7.34 13.22 7 2 C5.35 2 3.7 2 2 2 C1.67 8.27 1.34 14.54 1 21 C0.67 21 0.34 21 0 21 C0 14.07 0 7.14 0 0 Z " fill="#2F333B" transform="translate(223,730)"/>
<path d="M0 0 C0.66 0 1.32 0 2 0 C2 11.55 2 23.1 2 35 C1.34 35 0.68 35 0 35 C-0.167247 30.176384 -0.32784308 25.35261089 -0.48217773 20.52856445 C-0.53566959 18.88625066 -0.59100431 17.24399584 -0.64819336 15.60180664 C-0.72990479 13.24638594 -0.80506639 10.89083518 -0.87890625 8.53515625 C-0.90594131 7.79660904 -0.93297638 7.05806183 -0.96083069 6.2971344 C-1.0129438 4.53214384 -1.0118612 2.7657199 -1 1 C-0.67 0.67 -0.34 0.34 0 0 Z " fill="#D5C036" transform="translate(766,270)"/>
<path d="M0 0 C2.33944736 0.28730055 4.6739143 0.61936779 7 1 C7.625 3.375 7.625 3.375 8 6 C6 8 6 8 3 8.25 C0 8 0 8 -2 6 C-1.44444444 1.44444444 -1.44444444 1.44444444 0 0 Z " fill="#0A173D" transform="translate(782,716)"/>
<path d="M0 0 C0.66 0.33 1.32 0.66 2 1 C2 9.58 2 18.16 2 27 C-0.64 27 -3.28 27 -6 27 C-5.505 25.515 -5.505 25.515 -5 24 C-3.35 24.33 -1.7 24.66 0 25 C0 16.75 0 8.5 0 0 Z " fill="#2A253C" transform="translate(743,738)"/>
<path d="M0 0 C5.7926463 0.61425377 10.94609066 2.15533044 16.4375 4.0625 C17.26443359 4.34416016 18.09136719 4.62582031 18.94335938 4.91601562 C20.96412338 5.60517792 22.98233282 6.3018231 25 7 C24.01 9.97 23.02 12.94 22 16 C21.17189174 12.68756695 20.90721572 10.34023421 21 7 C19.89140625 6.72285156 18.7828125 6.44570313 17.640625 6.16015625 C5 3 5 3 2.86621094 2.34936523 C2.25036133 2.23407471 1.63451172 2.11878418 1 2 C-0.77190909 3.35444301 -0.77190909 3.35444301 -2 5 C-1.34 3.35 -0.68 1.7 0 0 Z " fill="#0D113B" transform="translate(227,628)"/>
<path d="M0 0 C1.25050287 2.50100574 1.02993449 4.00343052 0.87890625 6.7890625 C0.83056641 7.73007812 0.78222656 8.67109375 0.73242188 9.640625 C0.67634766 10.62546875 0.62027344 11.6103125 0.5625 12.625 C0.51029297 13.61757813 0.45808594 14.61015625 0.40429688 15.6328125 C0.27441051 18.08884568 0.13943836 20.5444936 0 23 C-2.97 23 -5.94 23 -9 23 C-9 21.35 -9 19.7 -9 18 C-8.67 18.99 -8.34 19.98 -8 21 C-6.02 21 -4.04 21 -2 21 C-2.02320313 19.90300781 -2.04640625 18.80601562 -2.0703125 17.67578125 C-2.08907921 16.221361 -2.10727844 14.76693336 -2.125 13.3125 C-2.15013672 12.2306543 -2.15013672 12.2306543 -2.17578125 11.12695312 C-2.21391569 6.95123219 -1.8789919 3.7505862 0 0 Z " fill="#15173C" transform="translate(450,742)"/>
<path d="M0 0 C2.31 0 4.62 0 7 0 C7 2.97 7 5.94 7 9 C9.64 9 12.28 9 15 9 C15 11.31 15 13.62 15 16 C12.36 16 9.72 16 7 16 C7 15.67 7 15.34 7 15 C8.98 15 10.96 15 13 15 C13 13.68 13 12.36 13 11 C11.5459375 11.0309375 11.5459375 11.0309375 10.0625 11.0625 C7 11 7 11 6 10 C5.92820036 8.48071962 5.91607993 6.95832518 5.9375 5.4375 C5.94652344 4.61121094 5.95554687 3.78492188 5.96484375 2.93359375 C5.97644531 2.29550781 5.98804688 1.65742187 6 1 C4.35 1 2.7 1 1 1 C1 2.98 1 4.96 1 7 C0.67 7 0.34 7 0 7 C0 4.69 0 2.38 0 0 Z " fill="#01073D" transform="translate(364,721)"/>
<path d="M0 0 C6.75 1.625 6.75 1.625 9 5 C8.67 5.99 8.34 6.98 8 8 C7.67 6.68 7.34 5.36 7 4 C6.34 4 5.68 4 5 4 C4.34 6.97 3.68 9.94 3 13 C1.18327099 9.36654198 -0.41871914 5.73757294 -2 2 C-1.34 2 -0.68 2 0 2 C0 1.34 0 0.68 0 0 Z " fill="#02163D" transform="translate(485,731)"/>
<path d="M0 0 C0.33 0 0.66 0 1 0 C1 2.31 1 4.62 1 7 C-0.65 7.33 -2.3 7.66 -4 8 C-4 9.32 -4 10.64 -4 12 C-2.68 12 -1.36 12 0 12 C0 18.93 0 25.86 0 33 C-0.33 33 -0.66 33 -1 33 C-1 26.4 -1 19.8 -1 13 C-2.65 13 -4.3 13 -6 13 C-6 10.69 -6 8.38 -6 6 C-4.02 6 -2.04 6 0 6 C0 4.02 0 2.04 0 0 Z " fill="#34333D" transform="translate(363,724)"/>
<path d="M0 0 C0.66 0.33 1.32 0.66 2 1 C1.53199289 5.05606165 1.12046792 8.46588679 -1 12 C-1.33 12 -1.66 12 -2 12 C-2.33 12.99 -2.66 13.98 -3 15 C-4.73956658 13.26043342 -4.37190386 10.8063378 -4.5625 8.4375 C-4.64628906 7.42558594 -4.73007813 6.41367187 -4.81640625 5.37109375 C-4.87699219 4.58863281 -4.93757812 3.80617188 -5 3 C-4.360625 2.690625 -3.72125 2.38125 -3.0625 2.0625 C-1.06389179 1.1654837 -1.06389179 1.1654837 0 0 Z " fill="#03253D" transform="translate(141,722)"/>
<path d="M0 0 C0.33 0.66 0.66 1.32 1 2 C0.690625 2.886875 0.38125 3.77375 0.0625 4.6875 C-1.83820004 10.6132119 -1.30306001 15.5454713 1.015625 21.2109375 C2.49858606 23.90616038 4.45897442 25.32664169 7 27 C7.763125 27.5775 8.52625 28.155 9.3125 28.75 C9.869375 29.1625 10.42625 29.575 11 30 C6.23157654 29.57925675 3.1639432 27.45488051 0 24 C-4.17026995 17.60558608 -3.91233131 9.39703916 -3 2 C-2.01 1.34 -1.02 0.68 0 0 Z " fill="#F6E437" transform="translate(620,736)"/>
<path d="M0 0 C1.32 0 2.64 0 4 0 C4 2.97 4 5.94 4 9 C2.02 9 0.04 9 -2 9 C-2.6875 7.3125 -2.6875 7.3125 -3 5 C-1.8125 2.25 -1.8125 2.25 0 0 Z " fill="#0F1D3D" transform="translate(457,729)"/>
<path d="M0 0 C1.8125 1.25 1.8125 1.25 3.8125 3.25 C2.1625 3.91 0.5125 4.57 -1.1875 5.25 C-0.1975 5.91 0.7925 6.57 1.8125 7.25 C1.8125 7.91 1.8125 8.57 1.8125 9.25 C-2.10591827 7.94386058 -4.51390809 6.41870152 -7.1875 3.25 C-7.1875 2.59 -7.1875 1.93 -7.1875 1.25 C-2.78072034 -0.95338983 -2.78072034 -0.95338983 0 0 Z " fill="#0E1A3C" transform="translate(549.1875,755.75)"/>
<path d="M0 0 C7.13566958 -0.42814017 11.72030759 0.23815376 17.375 5 C19 7 19 7 19 10 C18.01 9.67 17.02 9.34 16 9 C16 8.34 16 7.68 16 7 C13.38626111 4.46093936 11.87110419 3.07743148 8.1875 2.75 C7.465625 2.8325 6.74375 2.915 6 3 C6 3.33 6 3.66 6 4 C4.02 4 2.04 4 0 4 C0 2.68 0 1.36 0 0 Z " fill="#06113C" transform="translate(148,718)"/>
<path d="M0 0 C2.31 0.33 4.62 0.66 7 1 C7 1.66 7 2.32 7 3 C6.34 3 5.68 3 5 3 C5 3.66 5 4.32 5 5 C6.65 5 8.3 5 10 5 C8 7 8 7 6.125 7.265625 C5.42375 7.26046875 4.7225 7.2553125 4 7.25 C3.29875 7.25515625 2.5975 7.2603125 1.875 7.265625 C0 7 0 7 -2 5 C-1.01 4.34 -0.02 3.68 1 3 C0.67 2.01 0.34 1.02 0 0 Z M7 0 C10 1 10 1 10 1 Z " fill="#14273E" transform="translate(148,759)"/>
<path d="M0 0 C1.98 0 3.96 0 6 0 C6 0.66 6 1.32 6 2 C4.68 2 3.36 2 2 2 C2 3.32 2 4.64 2 6 C3.32 6 4.64 6 6 6 C6 12.6 6 19.2 6 26 C5.67 26 5.34 26 5 26 C5 19.73 5 13.46 5 7 C3.35 7 1.7 7 0 7 C0 4.69 0 2.38 0 0 Z " fill="#3A383A" transform="translate(686,730)"/>
<path d="M0 0 C1.98 0 3.96 0 6 0 C6 2.31 6 4.62 6 7 C-3.8877551 7.58163265 -3.8877551 7.58163265 -8 4 C-8 3.01 -8 2.02 -8 1 C-6.515 1.99 -6.515 1.99 -5 3 C-5 3.33 -5 3.66 -5 4 C-2.03 4.33 0.94 4.66 4 5 C4 3.68 4 2.36 4 1 C2.68 0.67 1.36 0.34 0 0 Z " fill="#0A113E" transform="translate(373,758)"/>
<path d="M0 0 C3 3 3 3 3.109375 6.06640625 C2.99078125 7.22011719 2.8721875 8.37382813 2.75 9.5625 C2.64171875 10.71878906 2.5334375 11.87507812 2.421875 13.06640625 C2 16 2 16 1 18 C-2.3 18 -5.6 18 -9 18 C-9 17.67 -9 17.34 -9 17 C-6.03 17 -3.06 17 0 17 C0 11.39 0 5.78 0 0 Z " fill="#FBE637" transform="translate(586,762)"/>
<path d="M0 0 C5.61 0.33 11.22 0.66 17 1 C17 1.33 17 1.66 17 2 C12.05 2 7.1 2 2 2 C2 3.65 2 5.3 2 7 C5.63 7 9.26 7 13 7 C13 7.33 13 7.66 13 8 C8.71 8 4.42 8 0 8 C0 5.36 0 2.72 0 0 Z " fill="#161E3D" transform="translate(401,718)"/>
<path d="M0 0 C4.92127034 -0.16682272 8.50343896 -0.24828052 13 2 C12.401875 2.144375 11.80375 2.28875 11.1875 2.4375 C9.43849596 2.8872439 7.71322977 3.42892341 6 4 C3.99124558 3.72428861 1.98821313 3.39764263 0 3 C0 2.01 0 1.02 0 0 Z M1 4 C3.31 4.33 5.62 4.66 8 5 C8 5.33 8 5.66 8 6 C5.36 6 2.72 6 0 6 C0.33 5.34 0.66 4.68 1 4 Z " fill="#1D2F3E" transform="translate(477,729)"/>
<path d="M0 0 C0.33 0 0.66 0 1 0 C1 5.61 1 11.22 1 17 C-1.31 16.01 -3.62 15.02 -6 14 C-8.32189536 13.5945897 -10.65515344 13.23927006 -13 13 C-13 12.67 -13 12.34 -13 12 C-8.71 12 -4.42 12 0 12 C0 8.04 0 4.08 0 0 Z " fill="#FAE936" transform="translate(263,716)"/>
<path d="M0 0 C2.31 0 4.62 0 7 0 C7 2.97 7 5.94 7 9 C6.01 8.34 5.02 7.68 4 7 C3.01 7.495 3.01 7.495 2 8 C2.020625 7.030625 2.04125 6.06125 2.0625 5.0625 C2.35618499 2.12534105 2.35618499 2.12534105 1 1 C0.67 2.32 0.34 3.64 0 5 C0 3.35 0 1.7 0 0 Z " fill="#01113D" transform="translate(693,721)"/>
<path d="M0 0 C1.6256807 0.30893932 3.25052748 0.6222695 4.875 0.9375 C5.77992188 1.11152344 6.68484375 1.28554687 7.6171875 1.46484375 C10 2 10 2 12 3 C12 3.66 12 4.32 12 5 C14.97 5.99 17.94 6.98 21 8 C17.62046978 9.12651007 17.15662941 8.93410746 14.0234375 7.63671875 C13.270625 7.32669922 12.5178125 7.01667969 11.7421875 6.69726562 C10.96101562 6.36404297 10.17984375 6.03082031 9.375 5.6875 C8.58609375 5.36587891 7.7971875 5.04425781 6.984375 4.71289062 C1.13221839 2.26443679 1.13221839 2.26443679 0 0 Z " fill="#F4DD39" transform="translate(700,217)"/>
<path d="M0 0 C1.06528748 2.73019786 1.07998186 3.79298812 0.00390625 6.578125 C-0.47175781 7.45984375 -0.94742187 8.3415625 -1.4375 9.25 C-2.14712891 10.58804688 -2.14712891 10.58804688 -2.87109375 11.953125 C-3.24363281 12.62859375 -3.61617188 13.3040625 -4 14 C-4.66 14 -5.32 14 -6 14 C-6.226875 14.5775 -6.45375 15.155 -6.6875 15.75 C-8.33038023 18.5663661 -10.39533227 20.08077114 -13 22 C-11.57694705 18.86505663 -9.8258839 16.45067742 -7.625 13.8125 C-4.19023859 9.49574349 -1.95550032 5.13774308 0 0 Z " fill="#F4E137" transform="translate(471,645)"/>
<path d="M0 0 C0.99 0.66 1.98 1.32 3 2 C2.01 2.99 1.02 3.98 0 5 C0.66 5.66 1.32 6.32 2 7 C-0.97 6.505 -0.97 6.505 -4 6 C-4 9.63 -4 13.26 -4 17 C-4.33 17 -4.66 17 -5 17 C-5 13.04 -5 9.08 -5 5 C-4.01 4.67 -3.02 4.34 -2 4 C-0.79117904 1.99983534 -0.79117904 1.99983534 0 0 Z " fill="#FBDD37" transform="translate(603,285)"/>
<path d="M0 0 C3.9252025 3.70090521 6.94580156 7.54959656 10 12 C9.67 12.66 9.34 13.32 9 14 C8.1028125 12.7934375 8.1028125 12.7934375 7.1875 11.5625 C5.19052724 8.77672016 5.19052724 8.77672016 2 8 C-0.1519437 4.77208445 -0.20086443 3.71599191 0 0 Z " fill="#EDD936" transform="translate(517,582)"/>
<path d="M0 0 C1.98 0 3.96 0 6 0 C6.04241723 2.33294775 6.04092937 4.66702567 6 7 C5 8 5 8 3.15234375 8.09765625 C1.1015625 8.06510417 -0.94921875 8.03255208 -3 8 C-3 7.67 -3 7.34 -3 7 C0.465 6.505 0.465 6.505 4 6 C4 4.68 4 3.36 4 2 C2.68 2 1.36 2 0 2 C0 1.34 0 0.68 0 0 Z " fill="#1F233C" transform="translate(766,757)"/>
<path d="M0 0 C1.32 0 2.64 0 4 0 C4 6.93 4 13.86 4 21 C3.67 21 3.34 21 3 21 C3 15.06 3 9.12 3 3 C2.01 3 1.02 3 0 3 C0 2.01 0 1.02 0 0 Z " fill="#F0C236" transform="translate(357,737)"/>
<path d="M0 0 C1.50122973 2.33413792 2.17292156 4.31199509 3 7 C2.01 7.495 2.01 7.495 1 8 C0.5875 7.071875 0.175 6.14375 -0.25 5.1875 C-2.01458957 1.97342615 -2.78913052 0.64882487 -6 -1 C-8.68009012 -1.52470095 -11.26910276 -1.77242523 -14 -2 C-14 -2.33 -14 -2.66 -14 -3 C-8.43228029 -4.67031591 -4.48102972 -3.52151563 0 0 Z " fill="#D8C738" transform="translate(869,732)"/>
<path d="M0 0 C1.258125 -0.04125 2.51625 -0.0825 3.8125 -0.125 C4.52019531 -0.14820313 5.22789062 -0.17140625 5.95703125 -0.1953125 C8 0 8 0 11 2 C5.33357449 3.22517308 -0.23708518 3.09228867 -6 3 C-6 2.67 -6 2.34 -6 2 C-4.02 2 -2.04 2 0 2 C0 1.34 0 0.68 0 0 Z " fill="#FADF36" transform="translate(306,609)"/>
<path d="M0 0 C1.32 0.33 2.64 0.66 4 1 C4 1.66 4 2.32 4 3 C6.31 3.66 8.62 4.32 11 5 C11 5.66 11 6.32 11 7 C11.66 7.33 12.32 7.66 13 8 C12.01 8.495 12.01 8.495 11 9 C10.649375 8.505 10.29875 8.01 9.9375 7.5 C7.05625711 5.26936034 4.52990974 5.80019379 1 6 C0.67 4.02 0.34 2.04 0 0 Z " fill="#0F273D" transform="translate(145,718)"/>
<path d="M0 0 C2.31 0 4.62 0 7 0 C7 2.31 7 4.62 7 7 C4.36 7 1.72 7 -1 7 C-1 6.67 -1 6.34 -1 6 C0.98 6 2.96 6 5 6 C5 4.68 5 3.36 5 2 C3.35 1.67 1.7 1.34 0 1 C0 0.67 0 0.34 0 0 Z " fill="#01063C" transform="translate(701,730)"/>
<path d="M0 0 C0.66 0 1.32 0 2 0 C2.03738281 0.59167969 2.07476562 1.18335938 2.11328125 1.79296875 C2.51376901 6.60667451 3.0385035 10.00841777 6 14 C3.71216703 13.08486681 2.26550272 12.34515354 0.75 10.375 C-0.35953628 6.86146845 -0.12256679 3.67700382 0 0 Z " fill="#0E133E" transform="translate(135,727)"/>
<path d="M0 0 C0.66 0.33 1.32 0.66 2 1 C1.07347299 2.17539996 0.13336613 3.34010577 -0.8125 4.5 C-1.33457031 5.1496875 -1.85664062 5.799375 -2.39453125 6.46875 C-4 8 -4 8 -7 8 C-5.50902342 4.2047869 -3.24299151 2.38957269 0 0 Z " fill="#FBDA38" transform="translate(755,428)"/>
<path d="M0 0 C0 1.98 0 3.96 0 6 C-0.99 6.495 -0.99 6.495 -2 7 C-2 5.35 -2 3.7 -2 2 C-4.97 2.66 -7.94 3.32 -11 4 C-11 3.34 -11 2.68 -11 2 C-7.12315913 0.80712589 -4.08378077 0 0 0 Z " fill="#F0DD38" transform="translate(736,749)"/>
<path d="M0 0 C0 0.66 0 1.32 0 2 C-0.99 2.33 -1.98 2.66 -3 3 C-3.99 4.485 -3.99 4.485 -5 6 C-7.95264073 8.04413589 -9.36672806 9 -13 9 C-11.54405245 7.68485396 -10.08516421 6.37296283 -8.625 5.0625 C-7.81289063 4.33160156 -7.00078125 3.60070312 -6.1640625 2.84765625 C-2.82875264 0 -2.82875264 0 0 0 Z " fill="#F3DE37" transform="translate(602,342)"/>
<path d="M0 0 C0.33 1.32 0.66 2.64 1 4 C1.99 3.67 2.98 3.34 4 3 C6.00875442 3.27571139 8.01178687 3.60235737 10 4 C9.67 4.66 9.34 5.32 9 6 C2.9453125 6.1953125 2.9453125 6.1953125 1 6 C0.34 5.34 -0.32 4.68 -1 4 C-0.625 1.875 -0.625 1.875 0 0 Z " fill="#F0DA36" transform="translate(723,753)"/>
<path d="M0 0 C0 2.62113708 -0.31292445 4.50935112 -1 7 C0.65 6.67 2.3 6.34 4 6 C4 6.99 4 7.98 4 9 C1.36 8.67 -1.28 8.34 -4 8 C-2.25 2.25 -2.25 2.25 0 0 Z " fill="#1D1D3C" transform="translate(470,732)"/>
<path d="M0 0 C1.32 0 2.64 0 4 0 C4 0.66 4 1.32 4 2 C3.34 2 2.68 2 2 2 C2.33 3.65 2.66 5.3 3 7 C2.34 7 1.68 7 1 7 C0.67 6.01 0.34 5.02 0 4 C-2.475 5.485 -2.475 5.485 -5 7 C-4.34 5.68 -3.68 4.36 -3 3 C-2.34 3 -1.68 3 -1 3 C-0.67 2.01 -0.34 1.02 0 0 Z " fill="#13283D" transform="translate(677,729)"/>
<path d="M0 0 C0.144375 0.61875 0.28875 1.2375 0.4375 1.875 C0.93152225 4.03258322 0.93152225 4.03258322 2 6 C-4.625 6.125 -4.625 6.125 -8 5 C-8 4.34 -8 3.68 -8 3 C-5.36 3 -2.72 3 0 3 C0 2.01 0 1.02 0 0 Z " fill="#E9BD36" transform="translate(322,605)"/>
<path d="M0 0 C0 0.99 0 1.98 0 3 C-4.455 3.495 -4.455 3.495 -9 4 C-8.67 3.01 -8.34 2.02 -8 1 C-5.07175348 0.02391783 -3.04386724 -0.08226668 0 0 Z " fill="#01243F" transform="translate(597,732)"/>
<path d="M0 0 C-0.53625 0.2475 -1.0725 0.495 -1.625 0.75 C-5.42262977 2.74875251 -8.95946005 4.95946005 -12 8 C-12 6.02 -12 4.04 -12 2 C-10.824375 1.7834375 -10.824375 1.7834375 -9.625 1.5625 C-2.078125 -0.0546875 -2.078125 -0.0546875 0 0 Z " fill="#F2E338" transform="translate(461,728)"/>
<path d="M0 0 C-1.1875 1.5 -1.1875 1.5 -3 3 C-5.6875 3.1875 -5.6875 3.1875 -8 3 C-8 2.34 -8 1.68 -8 1 C-8.66 0.67 -9.32 0.34 -10 0 C-6.30458414 -0.95024979 -3.69541586 -0.95024979 0 0 Z " fill="#ECC636" transform="translate(446,674)"/>
<path d="M0 0 C2.64752004 2.57784846 4.94432065 4.91648098 7 8 C6.01 8.495 6.01 8.495 5 9 C3.0625 7.875 3.0625 7.875 1 6 C0.25 2.8125 0.25 2.8125 0 0 Z " fill="#EACE37" transform="translate(797,755)"/>
<path d="M0 0 C0.268125 0.598125 0.53625 1.19625 0.8125 1.8125 C1.98493467 3.97224808 3.19369282 5.35790256 5 7 C4.01 7.99 3.02 8.98 2 10 C-0.09350689 6.5980513 -0.17942163 3.94727588 0 0 Z " fill="#27353C" transform="translate(328,730)"/>
<path d="M0 0 C0.99 0.66 1.98 1.32 3 2 C2.319375 2.5259375 2.319375 2.5259375 1.625 3.0625 C-0.64661334 5.77096206 -1.16798854 8.60795328 -2 12 C-2.66 12 -3.32 12 -4 12 C-2 3.42857143 -2 3.42857143 0 0 Z " fill="#14193B" transform="translate(264,628)"/>
<path d="M0 0 C1.32 0.99 2.64 1.98 4 3 C4.25 6.6875 4.25 6.6875 4 10 C3.01 10.33 2.02 10.66 1 11 C0.67 7.37 0.34 3.74 0 0 Z " fill="#EBC238" transform="translate(778,437)"/>
<path d="M0 0 C0.66 0.99 1.32 1.98 2 3 C1.525625 3.763125 1.05125 4.52625 0.5625 5.3125 C-1.10106097 7.96410548 -1.10106097 7.96410548 -2 11 C-2.66 11 -3.32 11 -4 11 C-3.5247412 9.35303396 -3.04468109 7.70745272 -2.5625 6.0625 C-2.29566406 5.14597656 -2.02882813 4.22945313 -1.75390625 3.28515625 C-1 1 -1 1 0 0 Z " fill="#141A3B" transform="translate(767,305)"/>
<path d="M0 0 C0 0.66 0 1.32 0 2 C-0.99 2.66 -1.98 3.32 -3 4 C-2.67 4.66 -2.34 5.32 -2 6 C-3.98 6.33 -5.96 6.66 -8 7 C-6.47663111 3.31852519 -4.31953005 0 0 0 Z " fill="#040F3D" transform="translate(725,730)"/>
<path d="M0 0 C3.5786304 1.65167557 6.74820188 3.78286492 10 6 C9.01 6.495 9.01 6.495 8 7 C5.96726926 6.06833174 3.96615661 5.0650015 2 4 C1.34 3.67 0.68 3.34 0 3 C0 2.01 0 1.02 0 0 Z " fill="#F4DD37" transform="translate(401,665)"/>
<path d="M0 0 C0 1.65 0 3.3 0 5 C-1.65 4.67 -3.3 4.34 -5 4 C-5 3.01 -5 2.02 -5 1 C-1.125 0 -1.125 0 0 0 Z " fill="#01223E" transform="translate(259,759)"/>
<path d="M0 0 C1.65 1.65 3.3 3.3 5 5 C4.67 5.66 4.34 6.32 4 7 C3.01 6.67 2.02 6.34 1 6 C0.67 4.02 0.34 2.04 0 0 Z " fill="#EFC937" transform="translate(397,660)"/>
<path d="M0 0 C2.92879371 0.62759865 5.36095629 1.58622659 8 3 C8 3.66 8 4.32 8 5 C5.36 4.34 2.72 3.68 0 3 C0 2.01 0 1.02 0 0 Z " fill="#E9CD39" transform="translate(231,626)"/>
<path d="M0 0 C0.33 0.66 0.66 1.32 1 2 C2.65 1.34 4.3 0.68 6 0 C6.33 0.99 6.66 1.98 7 3 C4.69 3.66 2.38 4.32 0 5 C0 3.35 0 1.7 0 0 Z " fill="#20303B" transform="translate(265,760)"/>
<path d="M0 0 C1.98 0 3.96 0 6 0 C4.35830472 2.02054804 2.69088222 4.02043058 1 6 C0.67 6 0.34 6 0 6 C0 4.02 0 2.04 0 0 Z " fill="#E0CF39" transform="translate(669,730)"/>
<path d="M0 0 C6.4 0.49230769 6.4 0.49230769 9.4375 3.0625 C10.2109375 4.0215625 10.2109375 4.0215625 11 5 C7.40052181 5 6.74899383 4.16587393 4 2 C2.68163705 1.30419733 1.35208914 0.62775567 0 0 Z " fill="#22203B" transform="translate(780,589)"/>
<path d="M0 0 C2.05078125 0.03255208 4.1015625 0.06510417 6.15234375 0.09765625 C3.77502765 2.47497235 2.44949168 2.76794146 -0.84765625 3.09765625 C-1.50765625 2.43765625 -2.16765625 1.77765625 -2.84765625 1.09765625 C-1.84765625 0.09765625 -1.84765625 0.09765625 0 0 Z " fill="#F1D438" transform="translate(655.84765625,567.90234375)"/>
<path d="M0 0 C1.75 1.4375 1.75 1.4375 3 3 C1.02 3.33 -0.96 3.66 -3 4 C-3.33 3.01 -3.66 2.02 -4 1 C-2.1875 0.3125 -2.1875 0.3125 0 0 Z " fill="#101E3D" transform="translate(671,305)"/>
</svg>
